<?xml version="1.0" ?><svg width="64px" height="64px" viewBox="0 0 64 64" id="fill" xmlns="http://www.w3.org/2000/svg"><path d="M36,56V49H28v7H23.074A3.074,3.074,0,0,0,20,59.074V61H44V59.074A3.074,3.074,0,0,0,40.926,56Z" style="fill:#e5e6eb"/><rect height="7" style="fill:#cfcfd9" width="2" x="34" y="49"/><path d="M40.927,56h-2A3.073,3.073,0,0,1,42,59.073V61h2V59.073A3.073,3.073,0,0,0,40.927,56Z" style="fill:#cfcfd9"/><rect height="40" rx="3.92" ry="3.92" style="fill:#d9dae2" width="58" x="3" y="11"/><path d="M58.662,11.338A3.905,3.905,0,0,1,59,12.92V45.08A3.92,3.92,0,0,1,55.08,49H4.92a3.905,3.905,0,0,1-1.582-.338A3.918,3.918,0,0,0,6.92,51H57.08A3.92,3.92,0,0,0,61,47.08V14.92A3.918,3.918,0,0,0,58.662,11.338Z" style="fill:#cfcfd9"/><path d="M8.183,15H55.817A1.183,1.183,0,0,1,57,16.183V43a0,0,0,0,1,0,0H7a0,0,0,0,1,0,0V16.183A1.183,1.183,0,0,1,8.183,15Z"/><path d="M8.183,15H55.817A1.183,1.183,0,0,1,57,16.183v0A26.817,26.817,0,0,1,30.183,43H7a0,0,0,0,1,0,0V16.183A1.183,1.183,0,0,1,8.183,15Z" style="fill:#444"/><path d="M13,3H24.757A10.43,10.43,0,0,1,32,5.9h0A10.43,10.43,0,0,1,39.243,3H51V29H13Z" style="fill:#027de5"/><path d="M39.243,3A10.43,10.43,0,0,0,32,5.9,10.43,10.43,0,0,0,24.757,3H17V23H47V3Z" style="fill:#cceaff"/><path d="M34,22V4.407A10.171,10.171,0,0,0,32,5.9V22H17v4H47V22Z" style="fill:#85b4e0"/><polygon points="19 9 19 5 23 5 19 9" style="fill:#fff"/><path d="M37,34.586l-1.489,1.489A1.96,1.96,0,0,0,35,36a2,2,0,1,0,2,2,1.96,1.96,0,0,0-.075-.511l1.782-1.782A1,1,0,0,0,39,35V28H37Z" style="fill:#027de5"/><path d="M44,36.278V28H42v8.278a2,2,0,1,0,2,0Z" style="fill:#027de5"/><path d="M49,33.278V28H47v5.278a2,2,0,1,0,2,0Z" style="fill:#027de5"/><path d="M29,34.278V28H27v6.278a2,2,0,1,0,2,0Z" style="fill:#027de5"/><path d="M26,38a1.96,1.96,0,0,0-.511.075L23,35.586V28H21v8a1,1,0,0,0,.293.707l2.782,2.782A1.96,1.96,0,0,0,24,40a2,2,0,1,0,2-2Z" style="fill:#027de5"/><path d="M18,33.278V28H16v5.278a2,2,0,1,0,2,0Z" style="fill:#027de5"/><path d="M57.08,10H51v2h6.08A2.923,2.923,0,0,1,60,14.92V47.08A2.923,2.923,0,0,1,57.08,50H6.92A2.923,2.923,0,0,1,4,47.08V14.92A2.923,2.923,0,0,1,6.92,12H13V10H6.92A4.925,4.925,0,0,0,2,14.92V47.08A4.925,4.925,0,0,0,6.92,52H27v3H23.074A4.079,4.079,0,0,0,19,59.074V61a1,1,0,0,0,1,1H44a1,1,0,0,0,1-1V59.074A4.079,4.079,0,0,0,40.926,55H37V52H57.08A4.925,4.925,0,0,0,62,47.08V14.92A4.925,4.925,0,0,0,57.08,10ZM36,57h4.926A2.076,2.076,0,0,1,43,59.074V60H21v-.926A2.076,2.076,0,0,1,23.074,57H28a1,1,0,0,0,1-1V52h6v4A1,1,0,0,0,36,57Z"/><path d="M56,16.184V42H8V16.184A.185.185,0,0,1,8.184,16H13V14H8.184A2.186,2.186,0,0,0,6,16.184V43a1,1,0,0,0,1,1H57a1,1,0,0,0,1-1V16.184A2.186,2.186,0,0,0,55.816,14H51v2h4.816A.185.185,0,0,1,56,16.184Z"/></svg>