<?xml version="1.0" ?><svg width="64px" height="64px" viewBox="0 0 64 64" xmlns="http://www.w3.org/2000/svg"><defs><style>.cls-1{fill:#b49313;}.cls-2{fill:#f0c419;}.cls-3{fill:#849eb4;}.cls-4{fill:#b0d3f0;}.cls-5{fill:#5f443e;}.cls-6{fill:#7f5b53;}.cls-7{fill:#396041;}.cls-8{fill:#4c8056;}.cls-9{fill:none;stroke:#000;stroke-linejoin:round;stroke-width:2px;}</style></defs><title/><g data-name="Layer 25" id="Layer_25"><circle class="cls-1" cx="46" cy="6" r="4"/><ellipse class="cls-2" cx="44.5" cy="6" rx="2.5" ry="3.7"/><path class="cls-3" d="M59,12a3,3,0,1,0-1.12-5.78,3,3,0,0,0-5.76,0A3,3,0,1,0,51,12Z"/><path class="cls-4" d="M59,9a3,3,0,0,0-1.12.22,3,3,0,0,0-5.76,0,3,3,0,0,0-3.7,1.28A3,3,0,0,0,51,12h8a3,3,0,0,0,2.58-1.5A3,3,0,0,0,59,9Z"/><path class="cls-3" d="M41,12a3,3,0,1,0-1.12-5.78,3,3,0,0,0-5.76,0A3,3,0,1,0,33,12Z"/><path class="cls-4" d="M41,9a3,3,0,0,0-1.12.22,3,3,0,0,0-5.76,0,3,3,0,0,0-3.7,1.28A3,3,0,0,0,33,12h8a3,3,0,0,0,2.58-1.5A3,3,0,0,0,41,9Z"/><rect class="cls-5" height="4" width="60" x="2" y="58"/><rect class="cls-6" height="4" width="56" x="2" y="58"/><path class="cls-2" d="M60,58a4,4,0,0,0-4-4,4,4,0,0,0-7-2.62,3.94,3.94,0,0,0-5-.83,3.94,3.94,0,0,0-5,.83A4,4,0,0,0,32,54a4,4,0,0,0-7-2.62,3.94,3.94,0,0,0-5-.83,3.94,3.94,0,0,0-5,.83A4,4,0,0,0,8,54a4,4,0,0,0-4,4"/><path class="cls-7" d="M27,32a5,5,0,0,0-2-4,5,5,0,0,0-3.07-7.91,5,5,0,0,0-9.82,0A5,5,0,0,0,9,28a5,5,0,0,0,.71,8.43A5,5,0,0,0,17,43a5,5,0,0,0,7.27-6.55A5,5,0,0,0,27,32Z"/><path class="cls-8" d="M24,32a5,5,0,0,0-2-4,5,5,0,0,0-3.07-7.91,5,5,0,0,0-3.41-3.84,5,5,0,0,0-3.41,3.84A5,5,0,0,0,9,28a5,5,0,0,0,.71,8.43,4.94,4.94,0,0,0,2.79,7.32A5.35,5.35,0,0,0,14,43a5,5,0,0,0,1.5.77A5,5,0,0,0,17,43a5.35,5.35,0,0,0,1.48.77,4.94,4.94,0,0,0,2.79-7.32A5,5,0,0,0,24,32Z"/><path class="cls-7" d="M57,32a5,5,0,0,0-2-4,5,5,0,0,0-3.07-7.91,5,5,0,0,0-9.82,0A5,5,0,0,0,39,28a5,5,0,0,0,.71,8.43A5,5,0,0,0,47,43a5,5,0,0,0,7.27-6.55A5,5,0,0,0,57,32Z"/><path class="cls-8" d="M54,32a5,5,0,0,0-2-4,5,5,0,0,0-3.07-7.91,5,5,0,0,0-3.41-3.84,5,5,0,0,0-3.41,3.84A5,5,0,0,0,39,28a5,5,0,0,0,.71,8.43,4.94,4.94,0,0,0,2.79,7.32A5.35,5.35,0,0,0,44,43a5,5,0,0,0,1.5.77A5,5,0,0,0,47,43a5.35,5.35,0,0,0,1.48.77,4.94,4.94,0,0,0,2.79-7.32A5,5,0,0,0,54,32Z"/><path class="cls-7" d="M42,32a5,5,0,0,0-2-4,5,5,0,0,0-3.07-7.91,5,5,0,0,0-9.82,0A5,5,0,0,0,24,28a5,5,0,0,0,.71,8.43A5,5,0,0,0,32,43a5,5,0,0,0,7.27-6.55A5,5,0,0,0,42,32Z"/><path class="cls-8" d="M39,32a5,5,0,0,0-2-4,5,5,0,0,0-3.07-7.91,5,5,0,0,0-3.41-3.84,5,5,0,0,0-3.41,3.84A5,5,0,0,0,24,28a5,5,0,0,0,.71,8.43,4.94,4.94,0,0,0,2.79,7.32A5.35,5.35,0,0,0,29,43a5,5,0,0,0,1.5.77A5,5,0,0,0,32,43a5.35,5.35,0,0,0,1.48.77,4.94,4.94,0,0,0,2.79-7.32A5,5,0,0,0,39,32Z"/><rect class="cls-9" height="4" width="60" x="2" y="58"/><path class="cls-9" d="M24.5,21.44a5.07,5.07,0,0,0-2.59-1.35,5,5,0,0,0-9.82,0A5,5,0,0,0,9,28a5,5,0,0,0,.71,8.43A5,5,0,0,0,17,43a5,5,0,0,0,7.5-1.8"/><line class="cls-9" x1="18" x2="18" y1="50" y2="23"/><line class="cls-9" x1="18" x2="12" y1="30" y2="24"/><line class="cls-9" x1="18" x2="22.09" y1="37" y2="32.91"/><path class="cls-9" d="M42,32a5,5,0,0,0-2-4,5,5,0,0,0-3.07-7.91,5,5,0,0,0-9.82,0A5,5,0,0,0,24,28a5,5,0,0,0,.71,8.43A5,5,0,0,0,32,43a5,5,0,0,0,7.27-6.55A5,5,0,0,0,42,32Z"/><line class="cls-9" x1="32" x2="32" y1="52" y2="23"/><line class="cls-9" x1="32" x2="37" y1="30" y2="25"/><line class="cls-9" x1="32" x2="27" y1="37" y2="32"/><path class="cls-9" d="M39.5,41.18A5,5,0,0,0,47,43a5,5,0,0,0,7.27-6.55A5,5,0,0,0,55,28a5,5,0,0,0-3.07-7.91,5,5,0,0,0-9.82,0,5.07,5.07,0,0,0-2.59,1.35"/><line class="cls-9" x1="47" x2="47" y1="50" y2="23"/><line class="cls-9" x1="47" x2="52" y1="30" y2="25"/><line class="cls-9" x1="47" x2="42" y1="37" y2="32"/><path class="cls-9" d="M60,58a4,4,0,0,0-4-4,4,4,0,0,0-7-2.62,3.94,3.94,0,0,0-5-.83,3.94,3.94,0,0,0-5,.83A4,4,0,0,0,32,54a4,4,0,0,0-7-2.62,3.94,3.94,0,0,0-5-.83,3.94,3.94,0,0,0-5,.83A4,4,0,0,0,8,54a4,4,0,0,0-4,4"/><path class="cls-9" d="M41,12a3,3,0,1,0-1.12-5.78,3,3,0,0,0-5.76,0A3,3,0,1,0,33,12Z"/><path class="cls-9" d="M59,12a3,3,0,1,0-1.12-5.78,3,3,0,0,0-5.76,0A3,3,0,1,0,51,12Z"/><path class="cls-9" d="M48,9.45a4,4,0,0,1-4.07,0"/><path class="cls-9" d="M42,6a4,4,0,0,1,8,0"/></g></svg>