<svg width="600" height="426" viewBox="0 0 600 426" fill="none" xmlns="http://www.w3.org/2000/svg">
<path opacity="0.5" d="M298.888 242.948C305.802 242.948 311.407 239.806 311.407 235.931C311.407 232.055 305.802 228.914 298.888 228.914C291.974 228.914 286.369 232.055 286.369 235.931C286.369 239.806 291.974 242.948 298.888 242.948Z" fill="url(#paint0_linear_500_1577)"/>
<path d="M282.469 197.835L282.943 198.672C285.898 203.881 286.9 209.973 285.768 215.854L283.637 226.925C282.898 230.766 284.68 234.651 288.073 236.596L288.106 236.615C290.935 238.238 294.413 238.233 297.237 236.602C300.616 234.652 302.387 230.775 301.65 226.944L299.531 215.934C298.389 210.004 299.417 203.862 302.427 198.626L302.882 197.835H282.469V197.835Z" fill="url(#paint1_linear_500_1577)"/>
<path d="M302.881 197.836C302.881 198.798 301.315 199.652 298.885 200.197C297.164 200.582 295.012 200.811 292.675 200.811C290.338 200.811 288.183 200.582 286.463 200.197C284.034 199.652 282.469 198.798 282.469 197.836C282.469 196.192 287.037 194.859 292.675 194.859C298.311 194.859 302.881 196.192 302.881 197.836Z" fill="url(#paint2_linear_500_1577)"/>
<path d="M298.888 200.169C298.888 200.178 298.888 200.188 298.886 200.197C297.165 200.582 295.012 200.811 292.676 200.811C290.339 200.811 288.184 200.582 286.463 200.197C286.461 200.188 286.461 200.178 286.461 200.169C286.461 199.167 289.243 198.357 292.676 198.357C296.106 198.357 298.888 199.167 298.888 200.169Z" fill="url(#paint3_linear_500_1577)"/>
<path d="M294.964 199.874C294.964 199.874 300.656 125.688 290.641 124.106C280.625 122.525 291.85 199.836 291.85 199.836L294.964 199.874Z" fill="url(#paint4_linear_500_1577)"/>
<path d="M288.957 199.874C288.957 199.874 269.853 144.067 279.405 141.292C288.957 138.519 293.226 199.874 293.226 199.874H288.957Z" fill="url(#paint5_linear_500_1577)"/>
<path d="M294.964 199.874C294.964 199.874 307.334 163.736 301.15 161.94C294.965 160.144 292.199 199.874 292.199 199.874H294.964Z" fill="url(#paint6_linear_500_1577)"/>
<path opacity="0.5" d="M563.073 381.088C563.073 381.088 558.677 406.905 541.384 404.815L486.444 372.592C479.758 368.957 480.76 362.496 487.232 358.494L493.985 354.317L563.073 381.088Z" fill="url(#paint7_linear_500_1577)"/>
<path d="M507.011 332.865L507.012 326.098L489.428 336.25L495.338 339.662L507.011 332.865Z" fill="url(#paint8_linear_500_1577)"/>
<path d="M489.428 348.922V336.25L548.043 370.092V390.396L496.039 360.372C491.948 358.01 489.428 353.645 489.428 348.922Z" fill="url(#paint9_linear_500_1577)"/>
<path d="M559.224 383.94L548.043 390.395V370.091L565.626 359.938V372.85C565.626 377.425 563.186 381.652 559.224 383.94Z" fill="url(#paint10_linear_500_1577)"/>
<path d="M565.627 359.938L507.013 326.098L507.012 332.865L559.765 363.323L565.627 359.938Z" fill="url(#paint11_linear_500_1577)"/>
<path d="M495.338 339.662L507.011 332.865L559.765 363.323L548.042 370.091L495.338 339.662Z" fill="url(#paint12_linear_500_1577)"/>
<path d="M507.012 342.516C507.012 342.516 511.73 329.299 521.586 333.399C531.442 337.499 519.015 347.665 532.44 340.779C545.865 333.892 542.711 362.814 542.711 362.814L507.012 342.516Z" fill="url(#paint13_linear_500_1577)"/>
<path d="M502.684 340.055C502.684 340.055 503.195 322.675 511.128 323.553C519.061 324.429 508.184 351.498 519.255 339.935C530.326 328.371 527.206 353.162 538.264 350.123C549.322 347.083 556.586 329.665 557.272 348.442C557.959 367.22 548.102 365.879 548.102 365.879L502.684 340.055Z" fill="url(#paint14_linear_500_1577)"/>
<path opacity="0.5" d="M413.571 296.364C413.571 296.364 409.175 322.181 391.882 320.092L336.942 287.868C330.256 284.233 331.258 277.773 337.73 273.77L344.483 269.594L413.571 296.364Z" fill="url(#paint15_linear_500_1577)"/>
<path d="M357.508 248.142L357.509 241.374L339.924 251.526L345.835 254.939L357.508 248.142Z" fill="url(#paint16_linear_500_1577)"/>
<path d="M339.924 264.198V251.526L398.539 285.368V305.672L346.535 275.648C342.444 273.286 339.924 268.922 339.924 264.198Z" fill="url(#paint17_linear_500_1577)"/>
<path d="M409.72 299.217L398.539 305.672V285.368L416.123 275.215V288.127C416.123 292.702 413.682 296.929 409.72 299.217Z" fill="url(#paint18_linear_500_1577)"/>
<path d="M416.123 275.215L357.509 241.374L357.508 248.142L410.261 278.599L416.123 275.215Z" fill="url(#paint19_linear_500_1577)"/>
<path d="M345.834 254.939L357.507 248.142L410.261 278.599L398.538 285.368L345.834 254.939Z" fill="url(#paint20_linear_500_1577)"/>
<path d="M357.508 257.792C357.508 257.792 362.226 244.575 372.082 248.675C381.938 252.775 369.511 262.941 382.936 256.055C396.361 249.169 393.207 278.09 393.207 278.09L357.508 257.792Z" fill="url(#paint21_linear_500_1577)"/>
<path d="M353.182 255.331C353.182 255.331 353.693 237.952 361.626 238.829C369.559 239.706 358.682 266.775 369.753 255.211C380.824 243.647 377.704 268.439 388.762 265.399C399.82 262.359 407.084 244.942 407.77 263.719C408.457 282.496 398.6 281.156 398.6 281.156L353.182 255.331Z" fill="url(#paint22_linear_500_1577)"/>
<path d="M164.655 207.223L220.31 239.355V271.486L164.654 239.355L164.655 207.223Z" fill="url(#paint23_linear_500_1577)"/>
<path d="M275.966 207.223L220.311 239.355V271.486L275.967 239.355L275.966 207.223Z" fill="url(#paint24_linear_500_1577)"/>
<path d="M164.654 207.223L220.31 175.09L275.965 207.223L220.31 239.355L164.654 207.223Z" fill="url(#paint25_linear_500_1577)"/>
<path d="M183.902 207.222L220.311 186.202L256.72 207.222L220.311 228.243L183.902 207.222Z" fill="url(#paint26_linear_500_1577)"/>
<path d="M191.281 211.483L220.311 194.723L249.341 211.483L220.311 228.243L191.281 211.483Z" fill="url(#paint27_linear_500_1577)"/>
<path d="M172.2 175.09L220.311 202.867V230.641L172.199 202.865L172.2 175.09Z" fill="#6C41FF"/>
<path d="M268.421 175.09L220.311 202.867V230.641L268.423 202.865L268.421 175.09Z" fill="#6C41FF"/>
<path d="M164.655 175.09L220.31 207.223V223.805L164.654 191.674L164.655 175.09Z" fill="url(#paint28_linear_500_1577)"/>
<path d="M275.966 175.09L220.311 207.223V223.805L275.967 191.674L275.966 175.09Z" fill="url(#paint29_linear_500_1577)"/>
<path d="M164.654 175.09L220.31 142.958L275.965 175.09L220.31 207.222L164.654 175.09Z" fill="url(#paint30_linear_500_1577)"/>
<path d="M183.902 175.09L220.311 154.069L256.72 175.09L220.311 196.11L183.902 175.09Z" fill="url(#paint31_linear_500_1577)"/>
<path d="M191.281 179.35L220.311 162.59L249.341 179.35L220.311 196.111L191.281 179.35Z" fill="url(#paint32_linear_500_1577)"/>
<path d="M172.2 142.958L220.311 170.734V198.508L172.199 170.733L172.2 142.958Z" fill="#6C41FF"/>
<path d="M268.421 142.958L220.311 170.734V198.508L268.423 170.733L268.421 142.958Z" fill="#6C41FF"/>
<path d="M164.655 142.958L220.31 175.09V191.672L164.654 159.541L164.655 142.958Z" fill="url(#paint33_linear_500_1577)"/>
<path d="M275.966 142.958L220.311 175.09V191.672L275.967 159.541L275.966 142.958Z" fill="url(#paint34_linear_500_1577)"/>
<path d="M164.654 142.957L220.31 110.825L275.965 142.957L220.31 175.09L164.654 142.957Z" fill="url(#paint35_linear_500_1577)"/>
<path d="M183.902 142.958L220.311 121.937L256.72 142.958L220.311 163.978L183.902 142.958Z" fill="url(#paint36_linear_500_1577)"/>
<path d="M191.281 147.218L220.311 130.458L249.341 147.218L220.311 163.978L191.281 147.218Z" fill="url(#paint37_linear_500_1577)"/>
<path d="M220.311 121.937V130.458L191.281 147.218L183.902 142.958L220.311 121.937Z" fill="url(#paint38_linear_500_1577)"/>
<path d="M172.2 110.825L220.311 138.602V166.375L172.199 138.6L172.2 110.825Z" fill="#6C41FF"/>
<path d="M268.421 110.825L220.311 138.602V166.375L268.423 138.6L268.421 110.825Z" fill="#6C41FF"/>
<path d="M164.655 94.7607L220.31 126.893V159.022L164.654 126.891L164.655 94.7607Z" fill="url(#paint39_linear_500_1577)"/>
<path d="M275.966 94.7607L220.311 126.893V159.022L275.967 126.891L275.966 94.7607Z" fill="url(#paint40_linear_500_1577)"/>
<path d="M164.654 94.7606L220.31 62.6279L275.965 94.7606L220.31 126.893L164.654 94.7606Z" fill="url(#paint41_linear_500_1577)"/>
<path d="M183.902 94.7605L220.311 73.7397L256.72 94.7605L220.311 115.781L183.902 94.7605Z" fill="url(#paint42_linear_500_1577)"/>
<path d="M191.281 99.0211L220.311 82.2607L249.341 99.0211L220.311 115.781L191.281 99.0211Z" fill="#6C41FF"/>
<path d="M220.311 73.7397V82.2606L191.281 99.0209L183.902 94.7605L220.311 73.7397Z" fill="url(#paint43_linear_500_1577)"/>
<path d="M262.768 160.966L268.051 157.916L266.757 157.165L262.768 159.468V160.966Z" fill="url(#paint44_linear_500_1577)"/>
<path d="M268.052 154.069V157.916L266.758 157.164V154.86L268.052 154.069Z" fill="url(#paint45_linear_500_1577)"/>
<path d="M262.768 159.467V157.164L266.757 154.86V157.164L262.768 159.467Z" fill="url(#paint46_linear_500_1577)"/>
<path d="M254.68 165.402L259.963 162.352L258.669 161.6L254.68 163.904V165.402Z" fill="url(#paint47_linear_500_1577)"/>
<path d="M259.964 158.505V162.352L258.67 161.6V159.296L259.964 158.505Z" fill="url(#paint48_linear_500_1577)"/>
<path d="M254.68 163.903V161.6L258.669 159.296V161.6L254.68 163.903Z" fill="url(#paint49_linear_500_1577)"/>
<path d="M236.312 208.885L241.595 205.836L240.302 205.084L236.312 207.387V208.885Z" fill="url(#paint50_linear_500_1577)"/>
<path d="M241.596 201.989V205.836L240.303 205.084V202.78L241.596 201.989Z" fill="url(#paint51_linear_500_1577)"/>
<path d="M236.312 207.387V205.084L240.302 202.78V205.084L236.312 207.387Z" fill="url(#paint52_linear_500_1577)"/>
<path d="M228.225 213.321L233.508 210.271L232.214 209.52L228.225 211.823V213.321Z" fill="url(#paint53_linear_500_1577)"/>
<path d="M233.509 206.424V210.271L232.215 209.519V207.216L233.509 206.424Z" fill="url(#paint54_linear_500_1577)"/>
<path d="M228.225 211.823V209.519L232.214 207.216V209.519L228.225 211.823Z" fill="url(#paint55_linear_500_1577)"/>
<path d="M177.851 161.94L172.568 158.89L173.862 158.138L177.851 160.442V161.94Z" fill="url(#paint56_linear_500_1577)"/>
<path d="M172.568 155.043V158.89L173.862 158.138V155.835L172.568 155.043Z" fill="url(#paint57_linear_500_1577)"/>
<path d="M177.851 160.442V158.138L173.861 155.834V158.138L177.851 160.442Z" fill="url(#paint58_linear_500_1577)"/>
<path d="M185.939 166.376L180.656 163.326L181.95 162.574L185.939 164.877V166.376Z" fill="url(#paint59_linear_500_1577)"/>
<path d="M180.656 159.479V163.326L181.95 162.574V160.27L180.656 159.479Z" fill="url(#paint60_linear_500_1577)"/>
<path d="M185.939 164.877V162.574L181.949 160.27V162.574L185.939 164.877Z" fill="url(#paint61_linear_500_1577)"/>
<path d="M204.307 209.86L199.023 206.81L200.317 206.058L204.307 208.361V209.86Z" fill="url(#paint62_linear_500_1577)"/>
<path d="M199.023 202.962V206.809L200.317 206.058V203.754L199.023 202.962Z" fill="url(#paint63_linear_500_1577)"/>
<path d="M204.306 208.361V206.057L200.316 203.754V206.057L204.306 208.361Z" fill="url(#paint64_linear_500_1577)"/>
<path d="M212.395 214.295L207.111 211.246L208.405 210.494L212.395 212.797V214.295Z" fill="url(#paint65_linear_500_1577)"/>
<path d="M207.111 207.398V211.245L208.405 210.494V208.19L207.111 207.398Z" fill="url(#paint66_linear_500_1577)"/>
<path d="M212.394 212.797V210.493L208.404 208.189V210.493L212.394 212.797Z" fill="url(#paint67_linear_500_1577)"/>
<path d="M346.875 0L599.946 146.107L599.943 348.416L346.875 202.307V0Z" fill="white"/>
<path d="M458.564 206.729L497.244 229.058V306.813C497.244 314.339 493.228 321.293 486.71 325.056L454.182 343.817L415.049 321.223L447.644 302.589C454.181 298.854 458.227 291.913 458.257 284.384L458.564 206.729Z" fill="url(#paint68_linear_500_1577)"/>
<path d="M454.439 205.157L493.119 227.485V305.24C493.119 312.766 489.104 319.721 482.586 323.483L454.182 339.88L415.049 317.286L443.519 301.016C450.056 297.28 454.102 290.34 454.132 282.811L454.439 205.157Z" fill="url(#paint69_linear_500_1577)"/>
<path d="M415.049 317.287V321.223L454.181 343.816V339.88L415.049 317.287Z" fill="url(#paint70_linear_500_1577)"/>
<path d="M339.248 4.59961L592.319 150.707L592.316 353.015L339.248 206.906V4.59961Z" fill="url(#paint71_linear_500_1577)"/>
<path d="M339.248 4.59961L592.319 150.707L592.318 330.422L339.249 184.313L339.248 4.59961Z" fill="#1D1D1B"/>
<path d="M343.412 14.3618L586.178 154.519L586.175 319.586L343.412 179.427V14.3618Z" fill="#6C41FF"/>
<path d="M592.316 353.015L599.944 348.416L599.946 146.107L592.32 150.707L592.316 353.015Z" fill="url(#paint72_linear_500_1577)"/>
<path d="M339.248 4.59985L346.875 0L599.946 146.107L592.319 150.707L339.248 4.59985Z" fill="url(#paint73_linear_500_1577)"/>
<path d="M450.951 260.635C450.951 257.336 453.289 255.986 456.146 257.635C459.003 259.284 461.34 263.333 461.34 266.632C461.34 269.931 459.003 271.281 456.146 269.632C453.289 267.983 450.951 263.934 450.951 260.635Z" fill="url(#paint74_linear_500_1577)"/>
<path fill-rule="evenodd" clip-rule="evenodd" d="M422.142 169.801C422.149 172.305 422.739 174.951 423.662 177.106C424.026 177.955 424.443 178.726 424.898 179.383C425.408 180.132 425.969 180.729 426.554 181.128C426.858 181.333 427.154 181.474 427.44 181.556C428.388 181.827 429.222 181.44 429.836 180.524L457.336 229.777C457.223 230.441 457.163 231.189 457.167 231.995C457.181 236.602 459.163 241.683 461.583 243.323C461.886 243.529 462.183 243.671 462.469 243.752C464.463 244.323 465.957 241.973 465.941 237.943C465.939 237.109 465.871 236.251 465.749 235.407L493.267 223.914C494.064 225.948 495.158 227.617 496.362 228.431C496.663 228.636 496.957 228.777 497.24 228.858C497.459 228.921 497.671 228.948 497.876 228.941C498.335 228.935 498.756 228.752 499.127 228.425C500.108 227.564 500.731 225.658 500.723 223.052C500.71 218.915 499.11 214.393 497.031 212.328L496.9 171.681C499.059 172.305 500.551 169.952 500.538 165.921C500.53 163.316 499.893 160.558 498.903 158.356C498.53 157.529 498.107 156.78 497.647 156.143C497.171 155.488 496.661 154.962 496.125 154.598C495.822 154.392 495.525 154.25 495.239 154.168C494.269 153.89 493.418 154.304 492.803 155.266L465.243 106.466C465.42 105.674 465.515 104.754 465.513 103.726C465.499 99.1186 463.517 94.0374 461.1 92.3987C460.796 92.1927 460.5 92.0507 460.214 91.9691C458.22 91.3984 456.723 93.7475 456.736 97.7771C456.741 98.8067 456.842 99.8597 457.025 100.896L429.66 112.469C428.851 110.132 427.651 108.189 426.318 107.286C426.016 107.08 425.722 106.94 425.438 106.859C425.17 106.782 424.911 106.758 424.663 106.784C424.213 106.829 423.798 107.034 423.439 107.397C422.524 108.305 421.951 110.166 421.959 112.665C421.973 116.807 423.57 121.328 425.651 123.394L425.782 164.041C423.625 163.418 422.128 165.771 422.142 169.801ZM429.289 117.634C429.292 118.983 429.048 120.047 428.634 120.73C428.331 121.238 427.933 121.533 427.483 121.583C427.351 121.598 427.219 121.592 427.088 121.567C427.047 121.558 427.006 121.549 426.965 121.537C426.771 121.481 426.57 121.384 426.365 121.242C426.116 121.074 425.872 120.855 425.643 120.587C424.365 119.108 423.412 116.264 423.404 113.646C423.398 112.171 423.695 111.029 424.188 110.364C424.512 109.911 424.927 109.677 425.395 109.694C425.506 109.698 425.62 109.716 425.737 109.75C425.928 109.805 426.127 109.899 426.329 110.038C427.123 110.577 427.848 111.67 428.38 113.009C428.729 113.886 428.998 114.862 429.149 115.865C429.24 116.454 429.288 117.055 429.289 117.634ZM447.526 138.599C445.527 135.149 443.677 131.344 442.01 127.292C439.05 132.705 437.271 140.705 437.19 150.637L445.534 156.291C445.574 149.595 446.28 143.651 447.526 138.599ZM442.728 126.061C446.111 120.667 450.813 118.334 456.174 119.868C457.022 120.111 457.886 120.45 458.764 120.889C454.055 123.214 450.273 128.775 447.979 136.883C446.077 133.578 444.315 129.936 442.728 126.061ZM460.598 151.911L460.506 122.683C455.438 124.553 451.378 130.139 449.004 138.61C452.508 144.341 456.44 148.952 460.598 151.911ZM460.605 154.111L460.645 166.531L446.688 157.071C446.729 150.747 447.389 145.123 448.553 140.326C452.199 146.264 456.287 151.041 460.605 154.111ZM460.693 180.917L460.652 168.492L446.695 159.033C446.777 165.441 447.474 171.985 448.677 178.385C450.817 177.789 453.116 177.808 455.53 178.499C457.2 178.977 458.927 179.777 460.693 180.917ZM460.7 183.112L460.792 212.34C455.691 203.58 451.579 192.453 449.138 180.723C451.21 180.131 453.438 180.142 455.778 180.812C457.371 181.268 459.016 182.029 460.7 183.112ZM442.919 184.805C446.894 196.395 452.618 206.276 459.059 211.783C454.309 203.039 450.476 192.324 448.12 181.063C446.231 181.802 444.487 183.06 442.919 184.805ZM442.186 182.591C439.184 173.137 437.342 162.683 437.197 152.598L445.538 158.252C445.624 165.029 446.371 171.959 447.654 178.723C445.671 179.479 443.833 180.784 442.186 182.591ZM436.471 158.301C436.276 155.828 436.166 153.36 436.158 150.916C436.15 148.394 436.25 145.994 436.441 143.712C434.464 139.718 432.588 135.458 430.835 130.958C429.994 128.803 429.191 126.618 428.429 124.408C428.064 124.538 427.666 124.543 427.095 124.374L427.226 165.021C427.701 165.497 428.153 166.096 428.564 166.796C429.316 165.615 430.108 164.506 430.937 163.484C432.665 161.354 434.516 159.626 436.471 158.301ZM464.069 102.746C464.07 103.273 464.033 103.764 463.964 104.198C463.831 105.014 463.58 105.651 463.245 106.085C462.845 106.602 462.324 106.81 461.739 106.643C461.547 106.588 461.349 106.493 461.144 106.354C460.318 105.794 459.567 104.635 459.032 103.232C458.691 102.34 458.435 101.356 458.298 100.358C458.224 99.8223 458.185 99.285 458.181 98.7576C458.174 96.0515 459.174 94.4782 460.513 94.8614C460.705 94.9164 460.905 95.012 461.109 95.1504C462.732 96.2503 464.058 99.6542 464.069 102.746ZM490.547 169.487C491.365 168.486 492.141 167.396 492.876 166.234C492.191 164.301 491.771 162.088 491.764 159.977C491.762 158.892 491.869 157.934 492.063 157.112L464.527 108.355C463.903 109.373 463.032 109.818 462.035 109.533C461.75 109.451 461.454 109.31 461.152 109.105C459.79 108.181 458.569 106.168 457.757 103.766L430.415 115.333C430.618 116.424 430.729 117.528 430.734 118.614C430.74 120.819 430.299 122.514 429.569 123.508C430.293 125.598 431.051 127.669 431.848 129.706C433.381 133.643 435.017 137.38 436.73 140.921C437.517 134.586 439.087 129.337 441.26 125.415C441.494 124.988 441.736 124.583 441.984 124.188C445.511 118.613 450.398 116.206 455.968 117.801C456.855 118.054 457.758 118.409 458.676 118.868C459.373 119.221 460.079 119.63 460.794 120.102C460.852 120.138 460.912 120.178 460.972 120.219L461.01 120.244C461.041 120.266 461.071 120.287 461.101 120.308C461.146 120.339 461.189 120.369 461.233 120.401C461.945 120.897 462.654 121.444 463.352 122.036C470.033 127.745 475.978 137.968 480.123 149.98C480.375 150.708 480.623 151.447 480.858 152.19C483.105 159.183 484.737 166.704 485.562 174.247C487.318 172.998 488.986 171.415 490.547 169.487ZM480.119 153.064C483.139 162.539 484.987 173.019 485.132 183.125L476.788 177.474C476.702 170.676 475.955 163.726 474.663 156.944C476.646 156.187 478.478 154.878 480.119 153.064ZM463.273 123.941C468.014 132.666 471.841 143.368 474.197 154.604C476.08 153.863 477.821 152.597 479.386 150.851C475.415 139.289 469.7 129.44 463.273 123.941ZM485.138 185.09C485.057 195.042 483.267 203.059 480.296 208.472C478.635 204.422 476.788 200.618 474.794 197.161C476.046 192.106 476.755 186.144 476.795 179.435L485.138 185.09ZM466.144 215.854C471.497 217.386 476.194 215.066 479.575 209.695C477.993 205.822 476.234 202.185 474.338 198.877C472.044 206.965 468.269 212.512 463.562 214.837C464.438 215.274 465.299 215.612 466.144 215.854ZM461.823 213.04L461.731 183.812C465.883 186.782 469.815 191.409 473.313 197.143C470.939 205.6 466.882 211.172 461.823 213.04ZM461.683 169.192L461.724 181.616C466.04 184.697 470.124 189.486 473.764 195.429C474.937 190.627 475.597 184.991 475.64 178.651L461.683 169.192ZM461.677 167.231L461.639 154.807C463.384 155.926 465.09 156.713 466.742 157.186C469.172 157.882 471.486 157.897 473.64 157.287C474.848 163.701 475.548 170.261 475.633 176.69L461.677 167.231ZM461.537 123.383L461.632 152.612C463.298 153.678 464.926 154.428 466.503 154.88C468.857 155.553 471.098 155.561 473.179 154.957C470.738 143.238 466.63 132.128 461.537 123.383ZM496.828 168.859C496.808 168.854 496.788 168.849 496.767 168.843C496.573 168.788 496.374 168.692 496.169 168.553C495.92 168.385 495.68 168.162 495.445 167.892C495.266 167.688 495.093 167.448 494.929 167.186C494.483 166.495 494.095 165.632 493.804 164.698C493.433 163.515 493.214 162.205 493.209 160.957C493.208 160.374 493.254 159.84 493.338 159.371C493.486 158.571 493.748 157.953 494.089 157.549C494.483 157.083 494.984 156.898 495.543 157.058C495.733 157.113 495.931 157.208 496.134 157.345C496.41 157.533 496.673 157.783 496.926 158.089C497.404 158.667 497.835 159.439 498.182 160.307C498.744 161.703 499.092 163.365 499.095 164.945C499.103 167.563 498.166 169.124 496.893 168.874C496.879 168.871 496.866 168.868 496.852 168.865L496.828 168.859ZM493.965 215.135C493.601 215.824 493.389 216.832 493.394 218.085C493.396 218.907 493.491 219.748 493.663 220.566C493.87 221.568 494.19 222.53 494.584 223.36C495.077 224.4 495.691 225.231 496.355 225.684C496.556 225.82 496.754 225.914 496.945 225.969C497.012 225.988 497.08 226.003 497.146 226.012C497.62 226.083 498.05 225.894 498.391 225.49C498.946 224.851 499.283 223.652 499.277 222.072C499.269 219.462 498.319 216.619 497.041 215.132C496.809 214.867 496.569 214.645 496.319 214.476C496.112 214.337 495.913 214.242 495.72 214.186C495.679 214.174 495.637 214.164 495.596 214.156C495.415 214.116 495.242 214.119 495.078 214.158C494.637 214.25 494.254 214.59 493.965 215.135ZM491.681 204.651C489.883 200.038 487.954 195.675 485.921 191.591C486.089 189.435 486.178 187.177 486.171 184.81C486.163 182.366 486.053 179.898 485.858 177.424C487.882 176.082 489.794 174.317 491.577 172.121C492.426 171.077 493.235 169.943 494.002 168.726C494.445 169.513 494.935 170.184 495.457 170.701L495.588 211.352C494.967 211.169 494.533 211.187 494.137 211.35C493.36 209.091 492.539 206.853 491.681 204.651ZM458.645 232.127C458.622 232.396 458.611 232.676 458.611 232.976C458.62 236.067 459.949 239.476 461.572 240.575C461.775 240.713 461.974 240.808 462.166 240.863C463.504 241.246 464.507 239.671 464.497 236.967C464.496 236.631 464.481 236.295 464.448 235.953C464.359 234.952 464.143 233.947 463.84 233.026C463.296 231.381 462.465 229.998 461.537 229.367C461.332 229.228 461.133 229.133 460.941 229.078C460.241 228.878 459.633 229.217 459.215 229.974C458.923 230.498 458.72 231.229 458.645 232.127ZM429.716 169.252C430.431 168.137 431.18 167.092 431.966 166.123C433.475 164.262 435.079 162.72 436.769 161.493C437.592 169.002 439.214 176.492 441.444 183.456C441.685 184.201 441.929 184.939 442.18 185.671C446.327 197.711 452.284 207.966 458.977 213.687C459.674 214.279 460.383 214.831 461.096 215.326L461.315 215.474C461.388 215.523 461.462 215.572 461.535 215.621C462.25 216.093 462.956 216.502 463.653 216.855C464.569 217.314 465.473 217.668 466.359 217.922C471.917 219.513 476.795 217.122 480.318 211.572C480.569 211.183 480.811 210.774 481.044 210.351C483.275 206.346 484.877 200.948 485.65 194.413C487.412 198.035 489.092 201.869 490.664 205.904C491.491 208.023 492.276 210.166 493.023 212.336C492.349 213.345 491.942 214.994 491.946 217.104C491.952 218.425 492.118 219.789 492.41 221.095L465.097 232.508C464.293 229.861 462.993 227.611 461.528 226.621C461.224 226.415 460.927 226.272 460.64 226.19C459.534 225.874 458.583 226.455 457.957 227.72L430.593 178.709C430.805 177.875 430.918 176.875 430.915 175.749C430.909 173.544 430.454 171.24 429.716 169.252ZM425.79 166.849C424.517 166.602 423.578 168.163 423.586 170.781C423.591 172.256 423.899 173.805 424.396 175.146C424.728 176.043 425.145 176.838 425.614 177.459C425.908 177.846 426.221 178.154 426.546 178.377C426.749 178.514 426.947 178.609 427.138 178.664C427.677 178.818 428.162 178.652 428.55 178.222C428.9 177.836 429.171 177.225 429.325 176.439C429.421 175.948 429.472 175.384 429.471 174.769C429.466 173.423 429.214 172.019 428.793 170.773C428.485 169.847 428.085 169.012 427.63 168.348C427.502 168.157 427.369 167.985 427.235 167.829C427.003 167.561 426.76 167.337 426.511 167.169C426.308 167.028 426.109 166.935 425.92 166.88C425.876 166.868 425.833 166.858 425.79 166.849Z" fill="url(#paint75_linear_500_1577)"/>
<path opacity="0.2" d="M492.024 272.518L424.611 53.8838L592.318 150.707L592.317 330.422L492.024 272.518Z" fill="url(#paint76_linear_500_1577)"/>
<path opacity="0.2" d="M410.205 45.5657L441.566 243.385L402.257 220.69L368.213 21.3218L410.205 45.5657Z" fill="url(#paint77_linear_500_1577)"/>
<path opacity="0.5" d="M322.11 275.545C331.574 275.545 339.246 273.511 339.246 271.001C339.246 268.492 331.574 266.458 322.11 266.458C312.647 266.458 304.975 268.492 304.975 271.001C304.975 273.511 312.647 275.545 322.11 275.545Z" fill="url(#paint78_linear_500_1577)"/>
<path d="M325.398 271.001L320.193 267.77L320.744 261.943L324.868 218.529L320.269 216.934L320.14 221.373L318.961 262.309L318.798 267.907L318.752 269.509L325.398 271.001Z" fill="url(#paint79_linear_500_1577)"/>
<path d="M318.961 262.308L320.744 261.943L322.117 261.663L325.664 216.96L320.14 221.372L318.961 262.308Z" fill="#1D1D1B"/>
<path d="M318.798 267.907L318.752 269.509L325.398 271.001L320.193 267.77L318.798 267.907Z" fill="#1D1D1B"/>
<path d="M318.486 272.235L313.28 269.004L313.832 263.176L317.956 219.762L313.357 218.167L313.227 222.606L312.049 263.542L311.886 269.14L311.84 270.743L318.486 272.235Z" fill="url(#paint80_linear_500_1577)"/>
<path d="M312.049 263.542L313.833 263.176L315.205 262.897L318.752 218.194L313.228 222.606L312.049 263.542Z" fill="#1D1D1B"/>
<path d="M311.886 269.14L311.84 270.743L318.486 272.235L313.28 269.004L311.886 269.14Z" fill="#1D1D1B"/>
<path d="M331.137 201.933L328.558 204.507L322.164 200.498L327.538 192.782L331.137 201.933Z" fill="url(#paint81_linear_500_1577)"/>
<path d="M322.519 190.839L318.485 191.565C315.114 192.172 312.656 195.097 312.639 198.523L311.314 224.769C315.748 226.96 321.093 226.007 324.495 222.417L328.495 218.195L328.593 196.274C328.819 192.918 325.83 190.243 322.519 190.839Z" fill="url(#paint82_linear_500_1577)"/>
<path d="M323.235 201.171L319.07 215.137L328.495 218.196L333.075 204.714L323.235 201.171Z" fill="url(#paint83_linear_500_1577)"/>
<path d="M319.98 189.07C319.98 189.07 320.134 191.687 320.526 191.964C320.918 192.241 322.952 194.414 321.911 190.083C320.871 185.754 319.98 189.07 319.98 189.07Z" fill="url(#paint84_linear_500_1577)"/>
<path d="M322.223 190.874C323.629 190.874 324.768 189.735 324.768 188.329C324.768 186.924 323.629 185.784 322.223 185.784C320.817 185.784 319.678 186.924 319.678 188.329C319.678 189.735 320.817 190.874 322.223 190.874Z" fill="url(#paint85_linear_500_1577)"/>
<path d="M322.213 212.774L322.802 214.277L324.759 209.918L314.145 209.741L316.502 202.438L314.223 194.088C311.952 196.657 310.218 199.626 309.49 201.879C303.321 220.976 314.991 214.638 319.661 211.891C320.602 211.337 321.814 211.757 322.213 212.774Z" fill="url(#paint86_linear_500_1577)"/>
<path d="M309.262 201.092L315.45 205.554L317.277 200.147C317.375 199.721 317.511 199.307 317.635 198.888C318.195 196.991 316.272 193.702 314.223 194.088C311.952 196.657 310.34 198.985 309.262 201.092Z" fill="url(#paint87_linear_500_1577)"/>
<path d="M327.152 183.356C327.152 185.465 326.241 187.457 324.739 188.713C324.764 188.479 324.768 188.342 324.757 188.115L322.929 188.154C322.929 188.154 322.618 188.851 322.224 188.81C321.826 188.769 321.76 189.499 321.76 189.499C321.76 189.499 321.161 187.749 320.912 189.034C320.783 189.702 321.228 190.097 321.228 190.097C321.228 190.097 320.922 190.522 320.305 190.522C316.521 190.522 313.457 187.135 313.457 183.356C313.457 179.572 316.521 176.508 320.305 176.508C324.083 176.508 327.152 179.572 327.152 183.356Z" fill="#1D1D1B"/>
<path opacity="0.4" d="M428.533 338.187C423.519 335.291 415.313 335.291 410.298 338.187C406.018 340.657 405.403 344.467 408.427 347.331L402.01 351.036L268.386 274.325C271.321 271.469 270.682 267.704 266.441 265.255C261.426 262.359 253.221 262.359 248.205 265.255C243.19 268.151 243.19 272.889 248.205 275.784C251.86 277.895 257.206 278.459 261.779 277.494L341.125 323.045L183.036 414.28L103.4 368.024C105.451 365.298 104.566 361.996 100.722 359.776C95.7079 356.88 87.5017 356.88 82.4862 359.776C77.4707 362.672 77.4707 367.41 82.4862 370.306C86.5573 372.656 92.7299 373.098 97.5917 371.633L183.027 421.258L347.182 326.522L402.019 358.002L415.097 350.453C419.641 351.379 424.916 350.805 428.533 348.716C433.547 345.821 433.547 341.082 428.533 338.187Z" fill="#6C41FF"/>
<path opacity="0.4" d="M127.926 288.121L203.941 244.232L203.939 178.402L127.926 222.288V288.121Z" fill="url(#paint88_linear_500_1577)"/>
<path opacity="0.4" d="M203.941 167.43L203.939 178.402L127.926 222.288V211.317L203.941 167.43Z" fill="url(#paint89_linear_500_1577)"/>
<g opacity="0.4">
<path d="M135.903 265.993C135.967 265.993 136.032 265.977 136.092 265.942L145.283 260.636C145.466 260.531 145.528 260.299 145.423 260.117C145.318 259.934 145.085 259.872 144.903 259.977L135.712 265.283C135.53 265.388 135.467 265.621 135.573 265.803C135.643 265.925 135.771 265.993 135.903 265.993Z" fill="url(#paint90_linear_500_1577)"/>
</g>
<g opacity="0.4">
<path d="M135.903 268.275C135.967 268.275 136.032 268.259 136.092 268.224L145.283 262.919C145.466 262.814 145.528 262.581 145.423 262.399C145.318 262.217 145.085 262.155 144.903 262.26L135.712 267.565C135.53 267.67 135.467 267.903 135.573 268.085C135.643 268.207 135.771 268.275 135.903 268.275Z" fill="url(#paint91_linear_500_1577)"/>
</g>
<g opacity="0.4">
<path d="M135.903 270.557C135.967 270.557 136.032 270.54 136.092 270.506L145.283 265.2C145.466 265.095 145.528 264.863 145.423 264.681C145.318 264.498 145.085 264.436 144.903 264.541L135.712 269.847C135.53 269.952 135.467 270.185 135.573 270.367C135.643 270.489 135.771 270.557 135.903 270.557Z" fill="url(#paint92_linear_500_1577)"/>
</g>
<g opacity="0.4">
<path d="M135.903 272.839C135.967 272.839 136.032 272.823 136.092 272.788L145.283 267.483C145.466 267.378 145.528 267.145 145.423 266.963C145.318 266.781 145.085 266.718 144.903 266.824L135.712 272.129C135.53 272.234 135.467 272.467 135.573 272.649C135.643 272.771 135.771 272.839 135.903 272.839Z" fill="url(#paint93_linear_500_1577)"/>
</g>
<g opacity="0.4">
<path d="M139.201 273.195C139.266 273.195 139.331 273.179 139.391 273.144L145.284 269.765C145.466 269.66 145.529 269.428 145.424 269.246C145.319 269.063 145.086 269.001 144.904 269.106L139.011 272.485C138.829 272.59 138.766 272.823 138.871 273.005C138.942 273.126 139.07 273.195 139.201 273.195Z" fill="url(#paint94_linear_500_1577)"/>
</g>
<path opacity="0.4" d="M145.474 254.372C145.474 253.939 145.168 253.763 144.793 253.979L138.552 257.582C138.178 257.799 137.871 258.33 137.871 258.762V261.578C137.871 262.011 138.178 262.188 138.552 261.971L144.793 258.368C145.167 258.152 145.474 257.621 145.474 257.189V254.372H145.474Z" fill="url(#paint95_linear_500_1577)"/>
<g opacity="0.7">
<path d="M171.694 248.821C172.603 248.821 173.599 248.624 174.7 248.174C180.247 245.905 181.83 237.538 183.361 229.447C184.598 222.91 185.877 216.152 189.201 214.806C190.109 214.438 190.876 214.492 191.618 214.974C195.811 217.697 197.202 232.134 197.384 237.467C197.402 237.982 197.832 238.385 198.348 238.368C198.863 238.35 199.266 237.919 199.248 237.404C199.178 235.342 198.394 217.151 192.635 213.41C191.39 212.602 189.96 212.486 188.502 213.077C184.234 214.806 182.92 221.749 181.529 229.101C180.091 236.702 178.604 244.563 173.995 246.448C169.9 248.124 167.883 245.329 165.547 242.093C163.205 238.85 160.291 234.814 154.843 238.065C153.598 238.808 152.512 239.038 151.524 238.767C149.299 238.158 147.607 235.049 145.97 232.043C144.18 228.754 142.489 225.648 139.827 224.957C138.552 224.626 137.197 224.908 135.795 225.795C135.36 226.07 135.231 226.647 135.506 227.082C135.781 227.517 136.358 227.646 136.793 227.371C137.754 226.763 138.593 226.563 139.358 226.762C141.237 227.25 142.81 230.139 144.332 232.934C146.155 236.284 148.04 239.748 151.031 240.566C152.514 240.972 154.118 240.67 155.798 239.667C159.594 237.402 161.316 239.421 164.034 243.186C165.887 245.752 168.103 248.82 171.694 248.821Z" fill="#D882B6"/>
</g>
<path opacity="0.4" d="M196.955 209.726C196.955 204.855 193.503 202.862 189.285 205.297C185.066 207.731 181.615 213.709 181.615 218.58C181.615 223.451 185.066 225.445 189.285 223.009C193.503 220.575 196.955 214.597 196.955 209.726Z" fill="#D882B6"/>
<path opacity="0.6" d="M193.577 211.676C193.577 208.951 191.646 207.836 189.286 209.198C186.925 210.56 184.994 213.905 184.994 216.631C184.994 219.356 186.925 220.472 189.286 219.109C191.646 217.746 193.577 214.402 193.577 211.676Z" fill="#D882B6"/>
<path d="M191.381 212.944C191.381 211.613 190.438 211.068 189.285 211.734C188.133 212.399 187.189 214.032 187.189 215.363C187.189 216.695 188.133 217.239 189.285 216.574C190.438 215.908 191.381 214.275 191.381 212.944Z" fill="url(#paint96_linear_500_1577)"/>
<path d="M219.442 244.305L205.911 235.731L195.918 218.766L190.969 214.391L191.113 216.213C191.274 218.268 193.148 219.752 195.186 219.44L195.441 219.401L202.744 236.61L217.12 247.292L219.442 244.305Z" fill="url(#paint97_linear_500_1577)"/>
<path opacity="0.5" d="M214.359 327.859C224.869 327.859 233.388 325.6 233.388 322.813C233.388 320.026 224.869 317.767 214.359 317.767C203.85 317.767 195.33 320.026 195.33 322.813C195.33 325.6 203.85 327.859 214.359 327.859Z" fill="url(#paint98_linear_500_1577)"/>
<path d="M209.981 278.931L210.472 322.813H206.148L211.731 324.981L213.573 272.57L209.981 278.931Z" fill="url(#paint99_linear_500_1577)"/>
<path d="M213.93 277.694L214.215 297.98L220.9 320.012L218.005 324.752L222.396 321.268L216.671 297.183L218.411 280.356L213.93 277.694Z" fill="url(#paint100_linear_500_1577)"/>
<path d="M203.184 277.694L202.24 281.483C201.982 282.518 202.212 283.614 202.863 284.458L204.138 284.037L204.669 281.952L203.184 277.694Z" fill="url(#paint101_linear_500_1577)"/>
<path d="M210.991 237.752L208.752 243.877C209.163 246.078 209.268 259.548 208.691 261.71L206.314 270.613C206.314 270.613 207.349 286.043 209.174 286.064C209.219 286.065 209.265 286.065 209.31 286.066C219.096 286.139 225.958 276.236 222.408 267.117C221.611 265.072 220.702 263.288 219.673 262.024C216.437 258.051 218.265 252.745 220.047 249.379C222.243 245.233 220.201 239.976 215.676 238.738C215.496 238.689 215.314 238.645 215.129 238.607L210.991 237.752Z" fill="url(#paint102_linear_500_1577)"/>
<path d="M205.696 245.811L207.627 259.899L202.285 281.345L209.897 261.425L209.922 244.641L208.753 243.877C207.326 242.945 205.465 244.123 205.696 245.811Z" fill="url(#paint103_linear_500_1577)"/>
<path d="M205.869 247.08L209.912 251.247L209.922 244.641L210.991 237.752L207.713 239.835C206.123 240.846 205.268 242.69 205.523 244.557L205.869 247.08Z" fill="url(#paint104_linear_500_1577)"/>
<path d="M211.625 236.313C213.135 236.313 214.36 235.088 214.36 233.577C214.36 232.066 213.135 230.841 211.625 230.841C210.114 230.841 208.889 232.066 208.889 233.577C208.889 235.088 210.114 236.313 211.625 236.313Z" fill="url(#paint105_linear_500_1577)"/>
<path d="M209.238 231.711C210.409 232.856 211.147 234.404 210.949 236.029C210.851 236.835 210.587 237.674 210.032 238.421C208.202 240.881 207.096 245.098 209.84 245.804C212.584 246.51 214.11 243.995 215.712 245.883C217.315 247.772 221.431 244.996 218.829 240.396C216.228 235.797 215.871 228.682 211.181 229.781C208.602 230.386 208.662 231.148 209.238 231.711Z" fill="#1D1D1B"/>
<path d="M206.148 322.813H210.472L211.776 323.703L211.731 324.981L206.148 322.813Z" fill="#1D1D1B"/>
<path d="M222.123 320.115L220.901 320.012L218.006 324.752L222.397 321.269L222.123 320.115Z" fill="#1D1D1B"/>
<path d="M0.000901578 300.797L55.6562 332.93V365.061L0 332.93L0.000901578 300.797Z" fill="url(#paint106_linear_500_1577)"/>
<path d="M111.312 300.797L55.6562 332.93V365.061L111.313 332.93L111.312 300.797Z" fill="url(#paint107_linear_500_1577)"/>
<path d="M0 300.797L55.6553 268.665L111.311 300.797L55.6553 332.93L0 300.797Z" fill="url(#paint108_linear_500_1577)"/>
<path d="M19.248 300.797L55.6569 279.777L92.0658 300.797L55.6569 321.818L19.248 300.797Z" fill="url(#paint109_linear_500_1577)"/>
<path d="M26.627 305.058L55.6564 288.297L84.6863 305.058L55.6564 321.818L26.627 305.058Z" fill="url(#paint110_linear_500_1577)"/>
<path d="M7.54582 268.665L55.6567 296.442V324.216L7.54492 296.44L7.54582 268.665Z" fill="#6C41FF"/>
<path d="M103.768 268.665L55.6562 296.442V324.216L103.768 296.44L103.768 268.665Z" fill="#6C41FF"/>
<path d="M0.000901578 268.665L55.6562 300.797V317.38L0 285.249L0.000901578 268.665Z" fill="url(#paint111_linear_500_1577)"/>
<path d="M111.312 268.665L55.6562 300.797V317.38L111.313 285.249L111.312 268.665Z" fill="url(#paint112_linear_500_1577)"/>
<path d="M0 268.665L55.6553 236.532L111.311 268.665L55.6553 300.797L0 268.665Z" fill="url(#paint113_linear_500_1577)"/>
<path d="M19.248 268.665L55.6569 247.644L92.0658 268.665L55.6569 289.686L19.248 268.665Z" fill="url(#paint114_linear_500_1577)"/>
<path d="M26.627 272.925L55.6564 256.165L84.6863 272.925L55.6564 289.686L26.627 272.925Z" fill="url(#paint115_linear_500_1577)"/>
<path d="M7.54582 236.532L55.6567 264.309V292.083L7.54492 264.308L7.54582 236.532Z" fill="#6C41FF"/>
<path d="M103.768 236.532L55.6562 264.309V292.083L103.768 264.308L103.768 236.532Z" fill="#6C41FF"/>
<path d="M0.000901578 236.532L55.6562 268.665V285.247L0 253.116L0.000901578 236.532Z" fill="url(#paint116_linear_500_1577)"/>
<path d="M111.312 236.532L55.6562 268.665V285.247L111.313 253.116L111.312 236.532Z" fill="url(#paint117_linear_500_1577)"/>
<path d="M0 236.532L55.6553 204.399L111.311 236.532L55.6553 268.665L0 236.532Z" fill="url(#paint118_linear_500_1577)"/>
<path d="M19.248 236.532L55.6569 215.512L92.0658 236.532L55.6569 257.553L19.248 236.532Z" fill="url(#paint119_linear_500_1577)"/>
<path d="M26.627 240.793L55.6564 224.032L84.6863 240.793L55.6564 257.553L26.627 240.793Z" fill="url(#paint120_linear_500_1577)"/>
<path d="M55.6569 215.512V224.033L26.6275 240.793L19.248 236.532L55.6569 215.512Z" fill="url(#paint121_linear_500_1577)"/>
<path d="M7.54582 204.399L55.6567 232.177V259.95L7.54492 232.175L7.54582 204.399Z" fill="#6C41FF"/>
<path d="M103.768 204.399L55.6562 232.177V259.95L103.768 232.175L103.768 204.399Z" fill="#6C41FF"/>
<path d="M0.000901578 188.335L55.6562 220.468V252.597L0 220.466L0.000901578 188.335Z" fill="url(#paint122_linear_500_1577)"/>
<path d="M111.312 188.335L55.6562 220.468V252.597L111.313 220.466L111.312 188.335Z" fill="url(#paint123_linear_500_1577)"/>
<path d="M0 188.335L55.6553 156.203L111.311 188.335L55.6553 220.468L0 188.335Z" fill="url(#paint124_linear_500_1577)"/>
<path d="M19.248 188.335L55.6569 167.314L92.0658 188.335L55.6569 209.356L19.248 188.335Z" fill="url(#paint125_linear_500_1577)"/>
<path d="M26.627 192.596L55.6564 175.835L84.6863 192.596L55.6564 209.356L26.627 192.596Z" fill="#6C41FF"/>
<path d="M55.6569 167.314V175.835L26.6275 192.596L19.248 188.335L55.6569 167.314Z" fill="url(#paint126_linear_500_1577)"/>
<path d="M98.1133 254.541L103.397 251.491L102.103 250.739L98.1133 253.043V254.541Z" fill="url(#paint127_linear_500_1577)"/>
<path d="M103.397 247.644V251.491L102.104 250.739V248.436L103.397 247.644Z" fill="url(#paint128_linear_500_1577)"/>
<path d="M98.1133 253.043V250.739L102.103 248.436V250.739L98.1133 253.043Z" fill="url(#paint129_linear_500_1577)"/>
<path d="M90.0254 258.977L95.3086 255.927L94.0153 255.175L90.0254 257.478V258.977Z" fill="url(#paint130_linear_500_1577)"/>
<path d="M95.3089 252.08V255.927L94.0156 255.175V252.871L95.3089 252.08Z" fill="url(#paint131_linear_500_1577)"/>
<path d="M90.0254 257.478V255.175L94.0153 252.871V255.175L90.0254 257.478Z" fill="url(#paint132_linear_500_1577)"/>
<path d="M71.6582 302.46L76.941 299.411L75.6477 298.659L71.6582 300.962V302.46Z" fill="url(#paint133_linear_500_1577)"/>
<path d="M76.9418 295.563V299.411L75.6484 298.659V296.355L76.9418 295.563Z" fill="url(#paint134_linear_500_1577)"/>
<path d="M71.6582 300.962V298.659L75.6477 296.355V298.659L71.6582 300.962Z" fill="url(#paint135_linear_500_1577)"/>
<path d="M63.5703 306.896L68.8536 303.846L67.5598 303.094L63.5703 305.398V306.896Z" fill="url(#paint136_linear_500_1577)"/>
<path d="M68.8543 299.999V303.846L67.5605 303.094V300.791L68.8543 299.999Z" fill="url(#paint137_linear_500_1577)"/>
<path d="M63.5703 305.398V303.094L67.5598 300.791V303.094L63.5703 305.398Z" fill="url(#paint138_linear_500_1577)"/>
<path d="M13.1973 255.515L7.91406 252.465L9.20738 251.713L13.1973 254.016V255.515Z" fill="url(#paint139_linear_500_1577)"/>
<path d="M7.91406 248.618V252.465L9.20738 251.713V249.409L7.91406 248.618Z" fill="url(#paint140_linear_500_1577)"/>
<path d="M13.197 254.016V251.713L9.20703 249.409V251.713L13.197 254.016Z" fill="url(#paint141_linear_500_1577)"/>
<path d="M21.2852 259.95L16.002 256.901L17.2957 256.149L21.2852 258.452V259.95Z" fill="url(#paint142_linear_500_1577)"/>
<path d="M16.002 253.054V256.901L17.2957 256.149V253.845L16.002 253.054Z" fill="url(#paint143_linear_500_1577)"/>
<path d="M21.2844 258.452V256.149L17.2949 253.845V256.149L21.2844 258.452Z" fill="url(#paint144_linear_500_1577)"/>
<path d="M39.6524 303.434L34.3691 300.385L35.6629 299.633L39.6524 301.936V303.434Z" fill="url(#paint145_linear_500_1577)"/>
<path d="M34.3691 296.538V300.385L35.6629 299.633V297.329L34.3691 296.538Z" fill="url(#paint146_linear_500_1577)"/>
<path d="M39.6516 301.936V299.633L35.6621 297.329V299.633L39.6516 301.936Z" fill="url(#paint147_linear_500_1577)"/>
<path d="M47.7398 307.87L42.457 304.82L43.7503 304.068L47.7398 306.372V307.87Z" fill="url(#paint148_linear_500_1577)"/>
<path d="M42.457 300.973V304.82L43.7503 304.068V301.764L42.457 300.973Z" fill="url(#paint149_linear_500_1577)"/>
<path d="M47.7395 306.372V304.068L43.75 301.764V304.068L47.7395 306.372Z" fill="url(#paint150_linear_500_1577)"/>
<path opacity="0.5" d="M39.1907 392.886C46.1047 392.886 51.7096 389.745 51.7096 385.87C51.7096 381.994 46.1047 378.853 39.1907 378.853C32.2768 378.853 26.6719 381.994 26.6719 385.87C26.6719 389.745 32.2768 392.886 39.1907 392.886Z" fill="url(#paint151_linear_500_1577)"/>
<path d="M22.7715 347.774L23.2462 348.611C26.2011 353.82 27.2027 359.912 26.0708 365.793L23.9399 376.864C23.2006 380.705 24.9826 384.59 28.3752 386.535L28.4086 386.554C31.2373 388.177 34.716 388.172 37.5402 386.541C40.9184 384.591 42.6896 380.714 41.9526 376.883L39.8334 365.873C38.692 359.943 39.7198 353.801 42.7297 348.565L43.1846 347.774H22.7715V347.774Z" fill="url(#paint152_linear_500_1577)"/>
<path d="M43.1841 347.775C43.1841 348.737 41.6185 349.591 39.1879 350.136C37.4672 350.521 35.3147 350.75 32.9778 350.75C30.6409 350.75 28.4861 350.521 26.7655 350.136C24.3375 349.591 22.7715 348.737 22.7715 347.775C22.7715 346.131 27.3398 344.798 32.9778 344.798C38.614 344.798 43.1841 346.131 43.1841 347.775Z" fill="url(#paint153_linear_500_1577)"/>
<path d="M39.1906 350.108C39.1906 350.117 39.1906 350.127 39.1883 350.136C37.4677 350.521 35.3151 350.75 32.9782 350.75C30.6414 350.75 28.4866 350.521 26.7659 350.136C26.7637 350.127 26.7637 350.117 26.7637 350.108C26.7637 349.106 29.5455 348.296 32.9782 348.296C36.4088 348.296 39.1906 349.106 39.1906 350.108Z" fill="url(#paint154_linear_500_1577)"/>
<path d="M35.2669 349.814C35.2669 349.814 40.959 275.627 30.9434 274.046C20.9277 272.465 32.1524 349.776 32.1524 349.776L35.2669 349.814Z" fill="url(#paint155_linear_500_1577)"/>
<path d="M29.2593 349.814C29.2593 349.814 10.1562 294.006 19.7075 291.232C29.2588 288.458 33.5296 349.814 33.5296 349.814H29.2593Z" fill="url(#paint156_linear_500_1577)"/>
<path d="M35.2671 349.814C35.2671 349.814 47.6372 313.675 41.4524 311.879C35.2675 310.083 32.502 349.814 32.502 349.814H35.2671Z" fill="url(#paint157_linear_500_1577)"/>
<path opacity="0.5" d="M369.232 403.146C380.523 403.146 389.676 400.718 389.676 397.724C389.676 394.73 380.523 392.303 369.232 392.303C357.942 392.303 348.789 394.73 348.789 397.724C348.789 400.718 357.942 403.146 369.232 403.146Z" fill="url(#paint158_linear_500_1577)"/>
<path d="M388.692 313.837L379.669 312.172L376.744 325.753L385.439 328.2L388.692 313.837Z" fill="#6C41FF"/>
<path d="M360.32 314.022L359.762 325.368L363.355 338.795L364.597 340.142L361.553 326.029L362.806 313.638L360.32 314.022Z" fill="url(#paint159_linear_500_1577)"/>
<path d="M361.816 340.36L363.423 367.86L361.816 398.321L366.848 397.091L363.112 395.867L366.496 367.214L367.441 340.36H361.816Z" fill="url(#paint160_linear_500_1577)"/>
<path d="M361.9 396.732L363.112 395.868L366.848 397.092L361.816 398.321L361.9 396.732Z" fill="#1D1D1B"/>
<path d="M365.445 343.102L369.048 370.602L367.441 401.062L372.472 399.832L368.737 398.609L372.121 369.956L370.897 343.102H365.445Z" fill="url(#paint161_linear_500_1577)"/>
<path d="M367.525 399.473L368.737 398.609L372.473 399.833L367.441 401.063L367.525 399.473Z" fill="#1D1D1B"/>
<path d="M358.369 343.753C359.033 346.993 360.327 346.683 360.089 349.981L360.066 353.168V353.177L362.331 354.234C363.394 354.73 364.632 354.68 365.652 354.101L367.139 353.24C371.46 350.738 374.541 354.606 374.199 349.625L372.293 321.434C373.835 319.837 374.991 317.056 373.519 315.387L370.229 311.011C368.827 309.145 366.471 308.261 364.188 308.743L362.362 309.128C362.362 309.128 359.512 310.481 360.48 316.864C361.253 321.958 364.903 323.612 362.316 328.996C359.887 334.052 357.767 340.814 358.369 343.753Z" fill="url(#paint162_linear_500_1577)"/>
<path d="M366.293 307.099C367.916 307.099 369.232 305.783 369.232 304.16C369.232 302.537 367.916 301.221 366.293 301.221C364.669 301.221 363.354 302.537 363.354 304.16C363.354 305.783 364.669 307.099 366.293 307.099Z" fill="url(#paint163_linear_500_1577)"/>
<path d="M368.26 299.959C369.099 300.219 369.48 301.192 369.06 301.964C368.361 303.252 367.026 305.904 367 307.422C366.982 308.483 367.017 309.606 367.196 310.286C367.317 310.744 367.11 311.222 366.677 311.415C364.439 312.414 359.433 314.311 359.432 311.301C359.431 309.789 360.763 305.929 361.056 304.159C361.592 300.919 363.224 300.051 366.337 299.795C367.105 299.733 367.754 299.802 368.26 299.959Z" fill="#1D1D1B"/>
<path d="M366.566 317.347L371.079 328.996L386.869 324.239L388.691 322.371L387.247 320.269L386.624 322.397L384.802 322.032L386.158 323.543L372.218 326.541L369.392 314.92L366.566 317.347Z" fill="url(#paint164_linear_500_1577)"/>
<path d="M369.072 312.016C369.801 312.69 370.533 313.892 370.529 315.995L366.129 318.458C366.129 318.458 362.541 314.167 366.35 311.806C367.206 311.276 368.333 311.332 369.072 312.016Z" fill="url(#paint165_linear_500_1577)"/>
<path opacity="0.5" d="M270.186 425.76C280.489 425.76 288.841 423.545 288.841 420.813C288.841 418.081 280.489 415.866 270.186 415.866C259.883 415.866 251.531 418.081 251.531 420.813C251.531 423.545 259.883 425.76 270.186 425.76Z" fill="url(#paint166_linear_500_1577)"/>
<path d="M266.607 420.814L272.274 417.296L271.674 410.952L267.184 363.69L272.191 361.953L272.332 366.785L273.615 411.351L273.792 417.445L273.843 419.189L266.607 420.814Z" fill="url(#paint167_linear_500_1577)"/>
<path d="M273.615 411.35L271.674 410.952L270.179 410.647L266.318 361.981L272.332 366.785L273.615 411.35Z" fill="#1D1D1B"/>
<path d="M273.792 417.445L273.843 419.189L266.607 420.813L272.274 417.296L273.792 417.445Z" fill="#1D1D1B"/>
<path d="M274.133 422.156L279.8 418.639L279.199 412.295L274.71 365.032L279.717 363.296L279.857 368.128L281.141 412.693L281.317 418.787L281.368 420.532L274.133 422.156Z" fill="url(#paint168_linear_500_1577)"/>
<path d="M281.141 412.693L279.199 412.294L277.704 411.99L273.844 363.324L279.857 368.127L281.141 412.693Z" fill="#1D1D1B"/>
<path d="M281.317 418.787L281.368 420.532L274.133 422.156L279.8 418.639L281.317 418.787Z" fill="#1D1D1B"/>
<path d="M264.278 335.66L256.742 343.58L247.741 330.922L244.027 330.297L241.471 332.15L245.852 333.703C245.852 333.703 251.913 367.187 268.145 342.193L264.278 335.66Z" fill="url(#paint169_linear_500_1577)"/>
<path d="M260.359 339.777L263.168 348.425L270.128 344.06L264.278 335.66L260.359 339.777Z" fill="url(#paint170_linear_500_1577)"/>
<path d="M269.742 333.545L274.134 334.335C277.804 334.996 280.48 338.181 280.498 341.909L281.941 370.482C277.113 372.868 271.295 371.83 267.591 367.922L263.236 363.326L263.13 339.462C262.883 335.808 266.137 332.895 269.742 333.545Z" fill="url(#paint171_linear_500_1577)"/>
<path d="M268.961 344.793L273.495 359.997L263.236 363.327L258.25 348.65L268.961 344.793Z" fill="#6C41FF"/>
<path d="M272.505 331.619C272.505 331.619 272.338 334.468 271.911 334.77C271.485 335.072 269.271 337.437 270.403 332.723C271.535 328.008 272.505 331.619 272.505 331.619Z" fill="url(#paint172_linear_500_1577)"/>
<path d="M270.064 333.583C271.594 333.583 272.834 332.343 272.834 330.813C272.834 329.282 271.594 328.042 270.064 328.042C268.533 328.042 267.293 329.282 267.293 330.813C267.293 332.343 268.533 333.583 270.064 333.583Z" fill="url(#paint173_linear_500_1577)"/>
<path d="M267.521 329.712C267.521 329.712 257.23 324.569 258.987 320.079C260.745 315.588 273.495 330.025 273.495 330.025L272.46 332.203C272.46 332.203 272.605 330.384 271.854 330.804C271.103 331.224 271.291 332.628 271.291 332.628L270.793 330.809L267.521 329.712Z" fill="#1D1D1B"/>
<path d="M270.075 357.424L269.434 359.059L267.303 354.315L278.857 354.122L276.291 346.171L278.774 337.082C281.246 339.879 283.134 343.111 283.926 345.563C290.642 366.353 277.937 359.453 272.853 356.462C271.829 355.861 270.509 356.318 270.075 357.424Z" fill="url(#paint174_linear_500_1577)"/>
<path d="M284.174 344.706L277.437 349.564L275.448 343.678C275.342 343.214 275.193 342.763 275.058 342.307C274.449 340.242 276.541 336.661 278.773 337.082C281.245 339.879 282.999 342.412 284.174 344.706Z" fill="url(#paint175_linear_500_1577)"/>
<path opacity="0.4" d="M250.457 357.902L220.521 340.618L220.522 314.693L250.457 331.976V357.902Z" fill="url(#paint176_linear_500_1577)"/>
<g opacity="0.4">
<path d="M223.654 324.024V340.372L227.726 342.724L227.726 326.268L223.654 324.024Z" fill="url(#paint177_linear_500_1577)"/>
<path d="M229.762 333.585V344.027L233.833 346.249V335.936L229.762 333.585Z" fill="url(#paint178_linear_500_1577)"/>
<path d="M235.771 333.215V347.448L239.843 349.67V335.566L235.771 333.215Z" fill="url(#paint179_linear_500_1577)"/>
<path d="M242.004 332.142V350.925L246.049 353.302L246.075 334.493L242.004 332.142Z" fill="url(#paint180_linear_500_1577)"/>
</g>
<path opacity="0.4" d="M220.521 310.372L220.522 314.693L250.457 331.976V327.655L220.521 310.372Z" fill="url(#paint181_linear_500_1577)"/>
<defs>
<linearGradient id="paint0_linear_500_1577" x1="302.638" y1="245.986" x2="302.551" y2="242.751" gradientUnits="userSpaceOnUse">
<stop stop-color="#F6F6F6"/>
<stop offset="1" stop-color="#CCD5ED"/>
</linearGradient>
<linearGradient id="paint1_linear_500_1577" x1="284.03" y1="188.282" x2="251.265" y2="210.688" gradientUnits="userSpaceOnUse">
<stop stop-color="#F6F6F6"/>
<stop offset="1" stop-color="#CCD5ED"/>
</linearGradient>
<linearGradient id="paint2_linear_500_1577" x1="282.469" y1="200.811" x2="302.882" y2="200.811" gradientUnits="userSpaceOnUse">
<stop stop-color="#F6F6F6"/>
<stop offset="1" stop-color="#CCD5ED"/>
</linearGradient>
<linearGradient id="paint3_linear_500_1577" x1="269.099" y1="194.32" x2="269.078" y2="203.76" gradientUnits="userSpaceOnUse">
<stop stop-color="#4790CD"/>
<stop offset="1" stop-color="#EA6FAA"/>
</linearGradient>
<linearGradient id="paint4_linear_500_1577" x1="291.47" y1="103.105" x2="276.57" y2="105.599" gradientUnits="userSpaceOnUse">
<stop stop-color="#4790CD"/>
<stop offset="1" stop-color="#EA6FAA"/>
</linearGradient>
<linearGradient id="paint5_linear_500_1577" x1="277.318" y1="156.165" x2="296.979" y2="195.796" gradientUnits="userSpaceOnUse">
<stop stop-color="#4790CD"/>
<stop offset="1" stop-color="#EA6FAA"/>
</linearGradient>
<linearGradient id="paint6_linear_500_1577" x1="290.442" y1="191.357" x2="306.696" y2="195.242" gradientUnits="userSpaceOnUse">
<stop stop-color="#4790CD"/>
<stop offset="1" stop-color="#EA6FAA"/>
</linearGradient>
<linearGradient id="paint7_linear_500_1577" x1="527.559" y1="413.363" x2="527.912" y2="402.779" gradientUnits="userSpaceOnUse">
<stop stop-color="#F6F6F6"/>
<stop offset="1" stop-color="#CCD5ED"/>
</linearGradient>
<linearGradient id="paint8_linear_500_1577" x1="487.647" y1="324.332" x2="487.647" y2="340.644" gradientUnits="userSpaceOnUse">
<stop stop-color="#F6F6F6"/>
<stop offset="1" stop-color="#CCD5ED"/>
</linearGradient>
<linearGradient id="paint9_linear_500_1577" x1="514.425" y1="343.522" x2="506.1" y2="364.924" gradientUnits="userSpaceOnUse">
<stop stop-color="#F6F6F6"/>
<stop offset="1" stop-color="#CCD5ED"/>
</linearGradient>
<linearGradient id="paint10_linear_500_1577" x1="551.518" y1="370.997" x2="552.44" y2="389.124" gradientUnits="userSpaceOnUse">
<stop stop-color="#F6F6F6"/>
<stop offset="1" stop-color="#CCD5ED"/>
</linearGradient>
<linearGradient id="paint11_linear_500_1577" x1="518.814" y1="357.231" x2="536.183" y2="388.701" gradientUnits="userSpaceOnUse">
<stop stop-color="#F6F6F6"/>
<stop offset="1" stop-color="#CCD5ED"/>
</linearGradient>
<linearGradient id="paint12_linear_500_1577" x1="462.098" y1="319.222" x2="451.401" y2="407.148" gradientUnits="userSpaceOnUse">
<stop stop-color="#4790CD"/>
<stop offset="1" stop-color="#EA6FAA"/>
</linearGradient>
<linearGradient id="paint13_linear_500_1577" x1="546.069" y1="321.383" x2="542.108" y2="327.821" gradientUnits="userSpaceOnUse">
<stop stop-color="#4790CD"/>
<stop offset="1" stop-color="#EA6FAA"/>
</linearGradient>
<linearGradient id="paint14_linear_500_1577" x1="512.424" y1="292.048" x2="481.944" y2="364.003" gradientUnits="userSpaceOnUse">
<stop stop-color="#4790CD"/>
<stop offset="1" stop-color="#EA6FAA"/>
</linearGradient>
<linearGradient id="paint15_linear_500_1577" x1="378.057" y1="328.639" x2="378.41" y2="318.056" gradientUnits="userSpaceOnUse">
<stop stop-color="#F6F6F6"/>
<stop offset="1" stop-color="#CCD5ED"/>
</linearGradient>
<linearGradient id="paint16_linear_500_1577" x1="338.143" y1="239.608" x2="338.143" y2="255.92" gradientUnits="userSpaceOnUse">
<stop stop-color="#F6F6F6"/>
<stop offset="1" stop-color="#CCD5ED"/>
</linearGradient>
<linearGradient id="paint17_linear_500_1577" x1="364.921" y1="258.799" x2="356.596" y2="280.2" gradientUnits="userSpaceOnUse">
<stop stop-color="#F6F6F6"/>
<stop offset="1" stop-color="#CCD5ED"/>
</linearGradient>
<linearGradient id="paint18_linear_500_1577" x1="402.014" y1="286.273" x2="402.935" y2="304.401" gradientUnits="userSpaceOnUse">
<stop stop-color="#F6F6F6"/>
<stop offset="1" stop-color="#CCD5ED"/>
</linearGradient>
<linearGradient id="paint19_linear_500_1577" x1="369.31" y1="272.507" x2="386.679" y2="303.977" gradientUnits="userSpaceOnUse">
<stop stop-color="#F6F6F6"/>
<stop offset="1" stop-color="#CCD5ED"/>
</linearGradient>
<linearGradient id="paint20_linear_500_1577" x1="312.594" y1="234.499" x2="301.897" y2="322.425" gradientUnits="userSpaceOnUse">
<stop stop-color="#4790CD"/>
<stop offset="1" stop-color="#EA6FAA"/>
</linearGradient>
<linearGradient id="paint21_linear_500_1577" x1="396.565" y1="236.659" x2="392.604" y2="243.098" gradientUnits="userSpaceOnUse">
<stop stop-color="#4790CD"/>
<stop offset="1" stop-color="#EA6FAA"/>
</linearGradient>
<linearGradient id="paint22_linear_500_1577" x1="362.922" y1="207.325" x2="332.442" y2="279.279" gradientUnits="userSpaceOnUse">
<stop stop-color="#4790CD"/>
<stop offset="1" stop-color="#EA6FAA"/>
</linearGradient>
<linearGradient id="paint23_linear_500_1577" x1="147.348" y1="240.716" x2="199.645" y2="282.626" gradientUnits="userSpaceOnUse">
<stop stop-color="#F6F6F6"/>
<stop offset="1" stop-color="#CCD5ED"/>
</linearGradient>
<linearGradient id="paint24_linear_500_1577" x1="214.254" y1="254.174" x2="258.696" y2="266.908" gradientUnits="userSpaceOnUse">
<stop stop-color="#F6F6F6"/>
<stop offset="1" stop-color="#CCD5ED"/>
</linearGradient>
<linearGradient id="paint25_linear_500_1577" x1="184.085" y1="205.644" x2="182.947" y2="247.59" gradientUnits="userSpaceOnUse">
<stop stop-color="#F6F6F6"/>
<stop offset="1" stop-color="#CCD5ED"/>
</linearGradient>
<linearGradient id="paint26_linear_500_1577" x1="236.417" y1="238.627" x2="247.426" y2="195.226" gradientUnits="userSpaceOnUse">
<stop stop-color="#F6F6F6"/>
<stop offset="1" stop-color="#CCD5ED"/>
</linearGradient>
<linearGradient id="paint27_linear_500_1577" x1="220.323" y1="195.55" x2="210.386" y2="216.75" gradientUnits="userSpaceOnUse">
<stop stop-color="#F6F6F6"/>
<stop offset="1" stop-color="#CCD5ED"/>
</linearGradient>
<linearGradient id="paint28_linear_500_1577" x1="147.46" y1="195.028" x2="181.354" y2="242.295" gradientUnits="userSpaceOnUse">
<stop stop-color="#F6F6F6"/>
<stop offset="1" stop-color="#CCD5ED"/>
</linearGradient>
<linearGradient id="paint29_linear_500_1577" x1="215.826" y1="207.277" x2="252.742" y2="225.685" gradientUnits="userSpaceOnUse">
<stop stop-color="#F6F6F6"/>
<stop offset="1" stop-color="#CCD5ED"/>
</linearGradient>
<linearGradient id="paint30_linear_500_1577" x1="184.085" y1="173.511" x2="182.947" y2="215.457" gradientUnits="userSpaceOnUse">
<stop stop-color="#F6F6F6"/>
<stop offset="1" stop-color="#CCD5ED"/>
</linearGradient>
<linearGradient id="paint31_linear_500_1577" x1="236.417" y1="206.494" x2="247.426" y2="163.094" gradientUnits="userSpaceOnUse">
<stop stop-color="#F6F6F6"/>
<stop offset="1" stop-color="#CCD5ED"/>
</linearGradient>
<linearGradient id="paint32_linear_500_1577" x1="220.323" y1="163.417" x2="210.386" y2="184.617" gradientUnits="userSpaceOnUse">
<stop stop-color="#F6F6F6"/>
<stop offset="1" stop-color="#CCD5ED"/>
</linearGradient>
<linearGradient id="paint33_linear_500_1577" x1="147.46" y1="162.895" x2="181.353" y2="210.163" gradientUnits="userSpaceOnUse">
<stop stop-color="#F6F6F6"/>
<stop offset="1" stop-color="#CCD5ED"/>
</linearGradient>
<linearGradient id="paint34_linear_500_1577" x1="215.826" y1="175.144" x2="252.742" y2="193.552" gradientUnits="userSpaceOnUse">
<stop stop-color="#F6F6F6"/>
<stop offset="1" stop-color="#CCD5ED"/>
</linearGradient>
<linearGradient id="paint35_linear_500_1577" x1="184.085" y1="141.379" x2="182.947" y2="183.325" gradientUnits="userSpaceOnUse">
<stop stop-color="#F6F6F6"/>
<stop offset="1" stop-color="#CCD5ED"/>
</linearGradient>
<linearGradient id="paint36_linear_500_1577" x1="236.417" y1="174.362" x2="247.426" y2="130.962" gradientUnits="userSpaceOnUse">
<stop stop-color="#F6F6F6"/>
<stop offset="1" stop-color="#CCD5ED"/>
</linearGradient>
<linearGradient id="paint37_linear_500_1577" x1="220.323" y1="131.285" x2="210.386" y2="152.485" gradientUnits="userSpaceOnUse">
<stop stop-color="#F6F6F6"/>
<stop offset="1" stop-color="#CCD5ED"/>
</linearGradient>
<linearGradient id="paint38_linear_500_1577" x1="218.918" y1="135.163" x2="210.542" y2="124.263" gradientUnits="userSpaceOnUse">
<stop stop-color="#F6F6F6"/>
<stop offset="1" stop-color="#CCD5ED"/>
</linearGradient>
<linearGradient id="paint39_linear_500_1577" x1="147.348" y1="128.252" x2="199.644" y2="170.164" gradientUnits="userSpaceOnUse">
<stop stop-color="#F6F6F6"/>
<stop offset="1" stop-color="#CCD5ED"/>
</linearGradient>
<linearGradient id="paint40_linear_500_1577" x1="214.254" y1="141.71" x2="258.695" y2="154.445" gradientUnits="userSpaceOnUse">
<stop stop-color="#F6F6F6"/>
<stop offset="1" stop-color="#CCD5ED"/>
</linearGradient>
<linearGradient id="paint41_linear_500_1577" x1="184.085" y1="93.182" x2="182.947" y2="135.128" gradientUnits="userSpaceOnUse">
<stop stop-color="#F6F6F6"/>
<stop offset="1" stop-color="#CCD5ED"/>
</linearGradient>
<linearGradient id="paint42_linear_500_1577" x1="236.417" y1="126.165" x2="247.426" y2="82.7644" gradientUnits="userSpaceOnUse">
<stop stop-color="#F6F6F6"/>
<stop offset="1" stop-color="#CCD5ED"/>
</linearGradient>
<linearGradient id="paint43_linear_500_1577" x1="218.918" y1="86.9655" x2="210.542" y2="76.0659" gradientUnits="userSpaceOnUse">
<stop stop-color="#F6F6F6"/>
<stop offset="1" stop-color="#CCD5ED"/>
</linearGradient>
<linearGradient id="paint44_linear_500_1577" x1="261.89" y1="155.203" x2="261.439" y2="160.988" gradientUnits="userSpaceOnUse">
<stop stop-color="#4790CD"/>
<stop offset="1" stop-color="#DA62A5"/>
</linearGradient>
<linearGradient id="paint45_linear_500_1577" x1="267.14" y1="160.654" x2="269.747" y2="160.298" gradientUnits="userSpaceOnUse">
<stop stop-color="#4790CD"/>
<stop offset="1" stop-color="#DA62A5"/>
</linearGradient>
<linearGradient id="paint46_linear_500_1577" x1="263.313" y1="151.725" x2="263.313" y2="155.074" gradientUnits="userSpaceOnUse">
<stop stop-color="#4790CD"/>
<stop offset="1" stop-color="#DA62A5"/>
</linearGradient>
<linearGradient id="paint47_linear_500_1577" x1="253.803" y1="159.638" x2="253.351" y2="165.424" gradientUnits="userSpaceOnUse">
<stop stop-color="#4790CD"/>
<stop offset="1" stop-color="#DA62A5"/>
</linearGradient>
<linearGradient id="paint48_linear_500_1577" x1="259.053" y1="165.089" x2="261.659" y2="164.734" gradientUnits="userSpaceOnUse">
<stop stop-color="#4790CD"/>
<stop offset="1" stop-color="#DA62A5"/>
</linearGradient>
<linearGradient id="paint49_linear_500_1577" x1="255.225" y1="151.725" x2="255.225" y2="155.073" gradientUnits="userSpaceOnUse">
<stop stop-color="#4790CD"/>
<stop offset="1" stop-color="#DA62A5"/>
</linearGradient>
<linearGradient id="paint50_linear_500_1577" x1="235.436" y1="203.122" x2="234.984" y2="208.908" gradientUnits="userSpaceOnUse">
<stop stop-color="#4790CD"/>
<stop offset="1" stop-color="#DA62A5"/>
</linearGradient>
<linearGradient id="paint51_linear_500_1577" x1="240.685" y1="208.575" x2="243.291" y2="208.22" gradientUnits="userSpaceOnUse">
<stop stop-color="#4790CD"/>
<stop offset="1" stop-color="#DA62A5"/>
</linearGradient>
<linearGradient id="paint52_linear_500_1577" x1="236.857" y1="199.645" x2="236.857" y2="202.993" gradientUnits="userSpaceOnUse">
<stop stop-color="#4790CD"/>
<stop offset="1" stop-color="#DA62A5"/>
</linearGradient>
<linearGradient id="paint53_linear_500_1577" x1="227.348" y1="207.558" x2="226.896" y2="213.343" gradientUnits="userSpaceOnUse">
<stop stop-color="#4790CD"/>
<stop offset="1" stop-color="#DA62A5"/>
</linearGradient>
<linearGradient id="paint54_linear_500_1577" x1="232.597" y1="213.009" x2="235.204" y2="212.654" gradientUnits="userSpaceOnUse">
<stop stop-color="#4790CD"/>
<stop offset="1" stop-color="#DA62A5"/>
</linearGradient>
<linearGradient id="paint55_linear_500_1577" x1="228.77" y1="199.645" x2="228.77" y2="202.993" gradientUnits="userSpaceOnUse">
<stop stop-color="#4790CD"/>
<stop offset="1" stop-color="#DA62A5"/>
</linearGradient>
<linearGradient id="paint56_linear_500_1577" x1="170.734" y1="156.801" x2="171.186" y2="162.586" gradientUnits="userSpaceOnUse">
<stop stop-color="#4790CD"/>
<stop offset="1" stop-color="#DA62A5"/>
</linearGradient>
<linearGradient id="paint57_linear_500_1577" x1="174.403" y1="154.845" x2="171.797" y2="154.49" gradientUnits="userSpaceOnUse">
<stop stop-color="#4790CD"/>
<stop offset="1" stop-color="#DA62A5"/>
</linearGradient>
<linearGradient id="paint58_linear_500_1577" x1="174.406" y1="152.699" x2="174.406" y2="156.048" gradientUnits="userSpaceOnUse">
<stop stop-color="#4790CD"/>
<stop offset="1" stop-color="#DA62A5"/>
</linearGradient>
<linearGradient id="paint59_linear_500_1577" x1="178.821" y1="161.236" x2="179.273" y2="167.022" gradientUnits="userSpaceOnUse">
<stop stop-color="#4790CD"/>
<stop offset="1" stop-color="#DA62A5"/>
</linearGradient>
<linearGradient id="paint60_linear_500_1577" x1="182.491" y1="159.282" x2="179.885" y2="158.927" gradientUnits="userSpaceOnUse">
<stop stop-color="#4790CD"/>
<stop offset="1" stop-color="#DA62A5"/>
</linearGradient>
<linearGradient id="paint61_linear_500_1577" x1="182.494" y1="152.699" x2="182.494" y2="156.047" gradientUnits="userSpaceOnUse">
<stop stop-color="#4790CD"/>
<stop offset="1" stop-color="#DA62A5"/>
</linearGradient>
<linearGradient id="paint62_linear_500_1577" x1="197.189" y1="204.72" x2="197.64" y2="210.506" gradientUnits="userSpaceOnUse">
<stop stop-color="#4790CD"/>
<stop offset="1" stop-color="#DA62A5"/>
</linearGradient>
<linearGradient id="paint63_linear_500_1577" x1="200.858" y1="202.765" x2="198.252" y2="202.41" gradientUnits="userSpaceOnUse">
<stop stop-color="#4790CD"/>
<stop offset="1" stop-color="#DA62A5"/>
</linearGradient>
<linearGradient id="paint64_linear_500_1577" x1="200.862" y1="200.619" x2="200.862" y2="203.967" gradientUnits="userSpaceOnUse">
<stop stop-color="#4790CD"/>
<stop offset="1" stop-color="#DA62A5"/>
</linearGradient>
<linearGradient id="paint65_linear_500_1577" x1="205.276" y1="209.156" x2="205.728" y2="214.941" gradientUnits="userSpaceOnUse">
<stop stop-color="#4790CD"/>
<stop offset="1" stop-color="#DA62A5"/>
</linearGradient>
<linearGradient id="paint66_linear_500_1577" x1="208.946" y1="207.202" x2="206.34" y2="206.846" gradientUnits="userSpaceOnUse">
<stop stop-color="#4790CD"/>
<stop offset="1" stop-color="#DA62A5"/>
</linearGradient>
<linearGradient id="paint67_linear_500_1577" x1="208.949" y1="200.618" x2="208.949" y2="203.967" gradientUnits="userSpaceOnUse">
<stop stop-color="#4790CD"/>
<stop offset="1" stop-color="#DA62A5"/>
</linearGradient>
<linearGradient id="paint68_linear_500_1577" x1="460.511" y1="344.675" x2="468.493" y2="320.762" gradientUnits="userSpaceOnUse">
<stop stop-color="#F6F6F6"/>
<stop offset="1" stop-color="#CCD5ED"/>
</linearGradient>
<linearGradient id="paint69_linear_500_1577" x1="456.987" y1="348.996" x2="507.017" y2="317.795" gradientUnits="userSpaceOnUse">
<stop stop-color="#F6F6F6"/>
<stop offset="1" stop-color="#CCD5ED"/>
</linearGradient>
<linearGradient id="paint70_linear_500_1577" x1="407.169" y1="343.816" x2="446.302" y2="343.816" gradientUnits="userSpaceOnUse">
<stop stop-color="#F6F6F6"/>
<stop offset="1" stop-color="#CCD5ED"/>
</linearGradient>
<linearGradient id="paint71_linear_500_1577" x1="457.771" y1="289.321" x2="485.402" y2="238.753" gradientUnits="userSpaceOnUse">
<stop stop-color="#F6F6F6"/>
<stop offset="1" stop-color="#CCD5ED"/>
</linearGradient>
<linearGradient id="paint72_linear_500_1577" x1="619.3" y1="-582.539" x2="562.529" y2="-582.332" gradientUnits="userSpaceOnUse">
<stop stop-color="#F6F6F6"/>
<stop offset="1" stop-color="#CCD5ED"/>
</linearGradient>
<linearGradient id="paint73_linear_500_1577" x1="339.248" y1="150.707" x2="599.946" y2="150.707" gradientUnits="userSpaceOnUse">
<stop stop-color="#F6F6F6"/>
<stop offset="1" stop-color="#CCD5ED"/>
</linearGradient>
<linearGradient id="paint74_linear_500_1577" x1="486.765" y1="268.215" x2="480.49" y2="267.138" gradientUnits="userSpaceOnUse">
<stop stop-color="#F6F6F6"/>
<stop offset="1" stop-color="#CCD5ED"/>
</linearGradient>
<linearGradient id="paint75_linear_500_1577" x1="490.608" y1="-105.61" x2="261.454" y2="-37.0042" gradientUnits="userSpaceOnUse">
<stop stop-color="#F6F6F6"/>
<stop offset="1" stop-color="#CCD5ED"/>
</linearGradient>
<linearGradient id="paint76_linear_500_1577" x1="323.596" y1="-36.6979" x2="549.571" y2="329.503" gradientUnits="userSpaceOnUse">
<stop stop-color="#F6F6F6"/>
<stop offset="1" stop-color="#CCD5ED"/>
</linearGradient>
<linearGradient id="paint77_linear_500_1577" x1="297.472" y1="14.4338" x2="490.934" y2="107.448" gradientUnits="userSpaceOnUse">
<stop stop-color="#F6F6F6"/>
<stop offset="1" stop-color="#CCD5ED"/>
</linearGradient>
<linearGradient id="paint78_linear_500_1577" x1="284.984" y1="241.748" x2="284.984" y2="261.438" gradientUnits="userSpaceOnUse">
<stop stop-color="#F6F6F6"/>
<stop offset="1" stop-color="#CCD5ED"/>
</linearGradient>
<linearGradient id="paint79_linear_500_1577" x1="323.795" y1="265.726" x2="315.109" y2="261.288" gradientUnits="userSpaceOnUse">
<stop stop-color="#FAD6C7"/>
<stop offset="1" stop-color="#E4857F"/>
</linearGradient>
<linearGradient id="paint80_linear_500_1577" x1="316.883" y1="266.959" x2="308.196" y2="262.522" gradientUnits="userSpaceOnUse">
<stop stop-color="#FAD6C7"/>
<stop offset="1" stop-color="#E4857F"/>
</linearGradient>
<linearGradient id="paint81_linear_500_1577" x1="310.902" y1="194.283" x2="312.313" y2="235.089" gradientUnits="userSpaceOnUse">
<stop stop-color="#4790CD"/>
<stop offset="1" stop-color="#DA62A5"/>
</linearGradient>
<linearGradient id="paint82_linear_500_1577" x1="327.838" y1="220.462" x2="324.869" y2="189.755" gradientUnits="userSpaceOnUse">
<stop stop-color="#F6F6F6"/>
<stop offset="1" stop-color="#CCD5ED"/>
</linearGradient>
<linearGradient id="paint83_linear_500_1577" x1="323.414" y1="190.099" x2="311.925" y2="208.796" gradientUnits="userSpaceOnUse">
<stop stop-color="#4790CD"/>
<stop offset="1" stop-color="#DA62A5"/>
</linearGradient>
<linearGradient id="paint84_linear_500_1577" x1="321.575" y1="192.327" x2="321.624" y2="190.269" gradientUnits="userSpaceOnUse">
<stop stop-color="#FAD6C7"/>
<stop offset="1" stop-color="#E4857F"/>
</linearGradient>
<linearGradient id="paint85_linear_500_1577" x1="323.841" y1="189.241" x2="323.579" y2="186.184" gradientUnits="userSpaceOnUse">
<stop stop-color="#FAD6C7"/>
<stop offset="1" stop-color="#E4857F"/>
</linearGradient>
<linearGradient id="paint86_linear_500_1577" x1="286.464" y1="196.664" x2="288.721" y2="269.594" gradientUnits="userSpaceOnUse">
<stop stop-color="#FAD6C7"/>
<stop offset="1" stop-color="#E4857F"/>
</linearGradient>
<linearGradient id="paint87_linear_500_1577" x1="298.683" y1="195.551" x2="300.175" y2="235.549" gradientUnits="userSpaceOnUse">
<stop stop-color="#4790CD"/>
<stop offset="1" stop-color="#DA62A5"/>
</linearGradient>
<linearGradient id="paint88_linear_500_1577" x1="123.001" y1="277.909" x2="205.955" y2="294.154" gradientUnits="userSpaceOnUse">
<stop stop-color="#4790CD"/>
<stop offset="1" stop-color="#DA62A5"/>
</linearGradient>
<linearGradient id="paint89_linear_500_1577" x1="155.034" y1="162.578" x2="155.62" y2="173.458" gradientUnits="userSpaceOnUse">
<stop stop-color="#4790CD"/>
<stop offset="1" stop-color="#DA62A5"/>
</linearGradient>
<linearGradient id="paint90_linear_500_1577" x1="136.946" y1="261.321" x2="137.27" y2="265.17" gradientUnits="userSpaceOnUse">
<stop stop-color="#4790CD"/>
<stop offset="1" stop-color="#DA62A5"/>
</linearGradient>
<linearGradient id="paint91_linear_500_1577" x1="136.946" y1="263.603" x2="137.27" y2="267.452" gradientUnits="userSpaceOnUse">
<stop stop-color="#4790CD"/>
<stop offset="1" stop-color="#DA62A5"/>
</linearGradient>
<linearGradient id="paint92_linear_500_1577" x1="136.945" y1="265.885" x2="137.27" y2="269.735" gradientUnits="userSpaceOnUse">
<stop stop-color="#4790CD"/>
<stop offset="1" stop-color="#DA62A5"/>
</linearGradient>
<linearGradient id="paint93_linear_500_1577" x1="136.946" y1="268.167" x2="137.27" y2="272.017" gradientUnits="userSpaceOnUse">
<stop stop-color="#4790CD"/>
<stop offset="1" stop-color="#DA62A5"/>
</linearGradient>
<linearGradient id="paint94_linear_500_1577" x1="139.686" y1="269.973" x2="139.925" y2="272.688" gradientUnits="userSpaceOnUse">
<stop stop-color="#4790CD"/>
<stop offset="1" stop-color="#DA62A5"/>
</linearGradient>
<linearGradient id="paint95_linear_500_1577" x1="125.102" y1="256.461" x2="137.146" y2="286.055" gradientUnits="userSpaceOnUse">
<stop stop-color="#4790CD"/>
<stop offset="1" stop-color="#DA62A5"/>
</linearGradient>
<linearGradient id="paint96_linear_500_1577" x1="185.889" y1="211.906" x2="188.484" y2="218.141" gradientUnits="userSpaceOnUse">
<stop stop-color="#F6F6F6"/>
<stop offset="1" stop-color="#CCD5ED"/>
</linearGradient>
<linearGradient id="paint97_linear_500_1577" x1="193.435" y1="239.427" x2="212.424" y2="254.73" gradientUnits="userSpaceOnUse">
<stop stop-color="#FAD6C7"/>
<stop offset="1" stop-color="#E4857F"/>
</linearGradient>
<linearGradient id="paint98_linear_500_1577" x1="173.131" y1="290.328" x2="173.131" y2="312.194" gradientUnits="userSpaceOnUse">
<stop stop-color="#F6F6F6"/>
<stop offset="1" stop-color="#CCD5ED"/>
</linearGradient>
<linearGradient id="paint99_linear_500_1577" x1="212.58" y1="304.376" x2="229.662" y2="295.234" gradientUnits="userSpaceOnUse">
<stop stop-color="#FAD6C7"/>
<stop offset="1" stop-color="#E4857F"/>
</linearGradient>
<linearGradient id="paint100_linear_500_1577" x1="221.807" y1="302.658" x2="242.501" y2="284.796" gradientUnits="userSpaceOnUse">
<stop stop-color="#FAD6C7"/>
<stop offset="1" stop-color="#E4857F"/>
</linearGradient>
<linearGradient id="paint101_linear_500_1577" x1="205.597" y1="280.214" x2="199.655" y2="277.314" gradientUnits="userSpaceOnUse">
<stop stop-color="#FAD6C7"/>
<stop offset="1" stop-color="#E4857F"/>
</linearGradient>
<linearGradient id="paint102_linear_500_1577" x1="221.239" y1="281.995" x2="230.363" y2="246.12" gradientUnits="userSpaceOnUse">
<stop stop-color="#F6F6F6"/>
<stop offset="1" stop-color="#CCD5ED"/>
</linearGradient>
<linearGradient id="paint103_linear_500_1577" x1="208.479" y1="273.493" x2="217.355" y2="272.352" gradientUnits="userSpaceOnUse">
<stop stop-color="#FAD6C7"/>
<stop offset="1" stop-color="#E4857F"/>
</linearGradient>
<linearGradient id="paint104_linear_500_1577" x1="214.731" y1="281.523" x2="221.71" y2="244.73" gradientUnits="userSpaceOnUse">
<stop stop-color="#F6F6F6"/>
<stop offset="1" stop-color="#CCD5ED"/>
</linearGradient>
<linearGradient id="paint105_linear_500_1577" x1="218.297" y1="238.618" x2="220.433" y2="224.104" gradientUnits="userSpaceOnUse">
<stop stop-color="#FAD6C7"/>
<stop offset="1" stop-color="#E4857F"/>
</linearGradient>
<linearGradient id="paint106_linear_500_1577" x1="-17.3062" y1="334.291" x2="34.9914" y2="376.201" gradientUnits="userSpaceOnUse">
<stop stop-color="#F6F6F6"/>
<stop offset="1" stop-color="#CCD5ED"/>
</linearGradient>
<linearGradient id="paint107_linear_500_1577" x1="49.5997" y1="347.748" x2="94.0415" y2="360.483" gradientUnits="userSpaceOnUse">
<stop stop-color="#F6F6F6"/>
<stop offset="1" stop-color="#CCD5ED"/>
</linearGradient>
<linearGradient id="paint108_linear_500_1577" x1="19.4307" y1="299.219" x2="18.2927" y2="341.165" gradientUnits="userSpaceOnUse">
<stop stop-color="#F6F6F6"/>
<stop offset="1" stop-color="#CCD5ED"/>
</linearGradient>
<linearGradient id="paint109_linear_500_1577" x1="71.7628" y1="332.202" x2="82.7719" y2="288.801" gradientUnits="userSpaceOnUse">
<stop stop-color="#F6F6F6"/>
<stop offset="1" stop-color="#CCD5ED"/>
</linearGradient>
<linearGradient id="paint110_linear_500_1577" x1="55.6687" y1="289.125" x2="45.7312" y2="310.325" gradientUnits="userSpaceOnUse">
<stop stop-color="#F6F6F6"/>
<stop offset="1" stop-color="#CCD5ED"/>
</linearGradient>
<linearGradient id="paint111_linear_500_1577" x1="-17.1944" y1="288.602" x2="16.6989" y2="335.87" gradientUnits="userSpaceOnUse">
<stop stop-color="#F6F6F6"/>
<stop offset="1" stop-color="#CCD5ED"/>
</linearGradient>
<linearGradient id="paint112_linear_500_1577" x1="51.1716" y1="300.851" x2="88.0878" y2="319.26" gradientUnits="userSpaceOnUse">
<stop stop-color="#F6F6F6"/>
<stop offset="1" stop-color="#CCD5ED"/>
</linearGradient>
<linearGradient id="paint113_linear_500_1577" x1="19.4308" y1="267.086" x2="18.2927" y2="309.032" gradientUnits="userSpaceOnUse">
<stop stop-color="#F6F6F6"/>
<stop offset="1" stop-color="#CCD5ED"/>
</linearGradient>
<linearGradient id="paint114_linear_500_1577" x1="71.7624" y1="300.069" x2="82.7718" y2="256.669" gradientUnits="userSpaceOnUse">
<stop stop-color="#F6F6F6"/>
<stop offset="1" stop-color="#CCD5ED"/>
</linearGradient>
<linearGradient id="paint115_linear_500_1577" x1="55.6687" y1="256.992" x2="45.7312" y2="278.192" gradientUnits="userSpaceOnUse">
<stop stop-color="#F6F6F6"/>
<stop offset="1" stop-color="#CCD5ED"/>
</linearGradient>
<linearGradient id="paint116_linear_500_1577" x1="-17.1944" y1="256.47" x2="16.6989" y2="303.738" gradientUnits="userSpaceOnUse">
<stop stop-color="#F6F6F6"/>
<stop offset="1" stop-color="#CCD5ED"/>
</linearGradient>
<linearGradient id="paint117_linear_500_1577" x1="51.1716" y1="268.719" x2="88.0878" y2="287.127" gradientUnits="userSpaceOnUse">
<stop stop-color="#F6F6F6"/>
<stop offset="1" stop-color="#CCD5ED"/>
</linearGradient>
<linearGradient id="paint118_linear_500_1577" x1="19.431" y1="234.954" x2="18.293" y2="276.899" gradientUnits="userSpaceOnUse">
<stop stop-color="#F6F6F6"/>
<stop offset="1" stop-color="#CCD5ED"/>
</linearGradient>
<linearGradient id="paint119_linear_500_1577" x1="71.7624" y1="267.937" x2="82.7717" y2="224.537" gradientUnits="userSpaceOnUse">
<stop stop-color="#F6F6F6"/>
<stop offset="1" stop-color="#CCD5ED"/>
</linearGradient>
<linearGradient id="paint120_linear_500_1577" x1="55.6687" y1="224.859" x2="45.7312" y2="246.059" gradientUnits="userSpaceOnUse">
<stop stop-color="#F6F6F6"/>
<stop offset="1" stop-color="#CCD5ED"/>
</linearGradient>
<linearGradient id="paint121_linear_500_1577" x1="54.2633" y1="228.738" x2="45.8878" y2="217.838" gradientUnits="userSpaceOnUse">
<stop stop-color="#F6F6F6"/>
<stop offset="1" stop-color="#CCD5ED"/>
</linearGradient>
<linearGradient id="paint122_linear_500_1577" x1="-17.3062" y1="221.827" x2="34.9894" y2="263.738" gradientUnits="userSpaceOnUse">
<stop stop-color="#F6F6F6"/>
<stop offset="1" stop-color="#CCD5ED"/>
</linearGradient>
<linearGradient id="paint123_linear_500_1577" x1="49.5999" y1="235.285" x2="94.041" y2="248.02" gradientUnits="userSpaceOnUse">
<stop stop-color="#F6F6F6"/>
<stop offset="1" stop-color="#CCD5ED"/>
</linearGradient>
<linearGradient id="paint124_linear_500_1577" x1="19.431" y1="186.757" x2="18.2929" y2="228.703" gradientUnits="userSpaceOnUse">
<stop stop-color="#F6F6F6"/>
<stop offset="1" stop-color="#CCD5ED"/>
</linearGradient>
<linearGradient id="paint125_linear_500_1577" x1="71.7624" y1="219.74" x2="82.7718" y2="176.339" gradientUnits="userSpaceOnUse">
<stop stop-color="#F6F6F6"/>
<stop offset="1" stop-color="#CCD5ED"/>
</linearGradient>
<linearGradient id="paint126_linear_500_1577" x1="54.2634" y1="180.54" x2="45.8878" y2="169.641" gradientUnits="userSpaceOnUse">
<stop stop-color="#F6F6F6"/>
<stop offset="1" stop-color="#CCD5ED"/>
</linearGradient>
<linearGradient id="paint127_linear_500_1577" x1="97.2363" y1="248.777" x2="96.7846" y2="254.563" gradientUnits="userSpaceOnUse">
<stop stop-color="#4790CD"/>
<stop offset="1" stop-color="#DA62A5"/>
</linearGradient>
<linearGradient id="paint128_linear_500_1577" x1="102.486" y1="254.228" x2="105.092" y2="253.873" gradientUnits="userSpaceOnUse">
<stop stop-color="#4790CD"/>
<stop offset="1" stop-color="#DA62A5"/>
</linearGradient>
<linearGradient id="paint129_linear_500_1577" x1="98.6583" y1="245.3" x2="98.6583" y2="248.648" gradientUnits="userSpaceOnUse">
<stop stop-color="#4790CD"/>
<stop offset="1" stop-color="#DA62A5"/>
</linearGradient>
<linearGradient id="paint130_linear_500_1577" x1="89.149" y1="253.213" x2="88.6972" y2="258.999" gradientUnits="userSpaceOnUse">
<stop stop-color="#4790CD"/>
<stop offset="1" stop-color="#DA62A5"/>
</linearGradient>
<linearGradient id="paint131_linear_500_1577" x1="94.3977" y1="258.666" x2="97.004" y2="258.311" gradientUnits="userSpaceOnUse">
<stop stop-color="#4790CD"/>
<stop offset="1" stop-color="#DA62A5"/>
</linearGradient>
<linearGradient id="paint132_linear_500_1577" x1="90.5705" y1="245.3" x2="90.5705" y2="248.648" gradientUnits="userSpaceOnUse">
<stop stop-color="#4790CD"/>
<stop offset="1" stop-color="#DA62A5"/>
</linearGradient>
<linearGradient id="paint133_linear_500_1577" x1="70.7814" y1="296.697" x2="70.3297" y2="302.482" gradientUnits="userSpaceOnUse">
<stop stop-color="#4790CD"/>
<stop offset="1" stop-color="#DA62A5"/>
</linearGradient>
<linearGradient id="paint134_linear_500_1577" x1="76.0308" y1="302.149" x2="78.637" y2="301.794" gradientUnits="userSpaceOnUse">
<stop stop-color="#4790CD"/>
<stop offset="1" stop-color="#DA62A5"/>
</linearGradient>
<linearGradient id="paint135_linear_500_1577" x1="72.2031" y1="293.22" x2="72.2031" y2="296.568" gradientUnits="userSpaceOnUse">
<stop stop-color="#4790CD"/>
<stop offset="1" stop-color="#DA62A5"/>
</linearGradient>
<linearGradient id="paint136_linear_500_1577" x1="62.6938" y1="301.133" x2="62.242" y2="306.918" gradientUnits="userSpaceOnUse">
<stop stop-color="#4790CD"/>
<stop offset="1" stop-color="#DA62A5"/>
</linearGradient>
<linearGradient id="paint137_linear_500_1577" x1="67.9433" y1="306.584" x2="70.5497" y2="306.229" gradientUnits="userSpaceOnUse">
<stop stop-color="#4790CD"/>
<stop offset="1" stop-color="#DA62A5"/>
</linearGradient>
<linearGradient id="paint138_linear_500_1577" x1="64.1155" y1="293.219" x2="64.1155" y2="296.568" gradientUnits="userSpaceOnUse">
<stop stop-color="#4790CD"/>
<stop offset="1" stop-color="#DA62A5"/>
</linearGradient>
<linearGradient id="paint139_linear_500_1577" x1="6.07875" y1="250.376" x2="6.53042" y2="256.161" gradientUnits="userSpaceOnUse">
<stop stop-color="#4790CD"/>
<stop offset="1" stop-color="#DA62A5"/>
</linearGradient>
<linearGradient id="paint140_linear_500_1577" x1="9.7488" y1="248.42" x2="7.14249" y2="248.065" gradientUnits="userSpaceOnUse">
<stop stop-color="#4790CD"/>
<stop offset="1" stop-color="#DA62A5"/>
</linearGradient>
<linearGradient id="paint141_linear_500_1577" x1="9.75211" y1="246.274" x2="9.75211" y2="249.622" gradientUnits="userSpaceOnUse">
<stop stop-color="#4790CD"/>
<stop offset="1" stop-color="#DA62A5"/>
</linearGradient>
<linearGradient id="paint142_linear_500_1577" x1="14.1669" y1="254.811" x2="14.6185" y2="260.597" gradientUnits="userSpaceOnUse">
<stop stop-color="#4790CD"/>
<stop offset="1" stop-color="#DA62A5"/>
</linearGradient>
<linearGradient id="paint143_linear_500_1577" x1="17.8371" y1="252.857" x2="15.2306" y2="252.502" gradientUnits="userSpaceOnUse">
<stop stop-color="#4790CD"/>
<stop offset="1" stop-color="#DA62A5"/>
</linearGradient>
<linearGradient id="paint144_linear_500_1577" x1="17.84" y1="246.274" x2="17.84" y2="249.622" gradientUnits="userSpaceOnUse">
<stop stop-color="#4790CD"/>
<stop offset="1" stop-color="#DA62A5"/>
</linearGradient>
<linearGradient id="paint145_linear_500_1577" x1="32.5338" y1="298.295" x2="32.9855" y2="304.081" gradientUnits="userSpaceOnUse">
<stop stop-color="#4790CD"/>
<stop offset="1" stop-color="#DA62A5"/>
</linearGradient>
<linearGradient id="paint146_linear_500_1577" x1="36.2042" y1="296.341" x2="33.5976" y2="295.986" gradientUnits="userSpaceOnUse">
<stop stop-color="#4790CD"/>
<stop offset="1" stop-color="#DA62A5"/>
</linearGradient>
<linearGradient id="paint147_linear_500_1577" x1="36.2069" y1="294.194" x2="36.2069" y2="297.542" gradientUnits="userSpaceOnUse">
<stop stop-color="#4790CD"/>
<stop offset="1" stop-color="#DA62A5"/>
</linearGradient>
<linearGradient id="paint148_linear_500_1577" x1="40.6218" y1="302.731" x2="41.0737" y2="308.516" gradientUnits="userSpaceOnUse">
<stop stop-color="#4790CD"/>
<stop offset="1" stop-color="#DA62A5"/>
</linearGradient>
<linearGradient id="paint149_linear_500_1577" x1="44.2917" y1="300.775" x2="41.6854" y2="300.42" gradientUnits="userSpaceOnUse">
<stop stop-color="#4790CD"/>
<stop offset="1" stop-color="#DA62A5"/>
</linearGradient>
<linearGradient id="paint150_linear_500_1577" x1="44.2953" y1="294.193" x2="44.2953" y2="297.542" gradientUnits="userSpaceOnUse">
<stop stop-color="#4790CD"/>
<stop offset="1" stop-color="#DA62A5"/>
</linearGradient>
<linearGradient id="paint151_linear_500_1577" x1="42.9406" y1="395.925" x2="42.8534" y2="392.69" gradientUnits="userSpaceOnUse">
<stop stop-color="#F6F6F6"/>
<stop offset="1" stop-color="#CCD5ED"/>
</linearGradient>
<linearGradient id="paint152_linear_500_1577" x1="24.3325" y1="338.221" x2="-8.4328" y2="360.628" gradientUnits="userSpaceOnUse">
<stop stop-color="#F6F6F6"/>
<stop offset="1" stop-color="#CCD5ED"/>
</linearGradient>
<linearGradient id="paint153_linear_500_1577" x1="22.7715" y1="350.75" x2="43.1842" y2="350.75" gradientUnits="userSpaceOnUse">
<stop stop-color="#F6F6F6"/>
<stop offset="1" stop-color="#CCD5ED"/>
</linearGradient>
<linearGradient id="paint154_linear_500_1577" x1="9.40159" y1="344.259" x2="9.38076" y2="353.7" gradientUnits="userSpaceOnUse">
<stop stop-color="#4790CD"/>
<stop offset="1" stop-color="#EA6FAA"/>
</linearGradient>
<linearGradient id="paint155_linear_500_1577" x1="31.7731" y1="253.044" x2="16.8729" y2="255.538" gradientUnits="userSpaceOnUse">
<stop stop-color="#4790CD"/>
<stop offset="1" stop-color="#EA6FAA"/>
</linearGradient>
<linearGradient id="paint156_linear_500_1577" x1="17.6203" y1="306.104" x2="37.2815" y2="345.736" gradientUnits="userSpaceOnUse">
<stop stop-color="#4790CD"/>
<stop offset="1" stop-color="#EA6FAA"/>
</linearGradient>
<linearGradient id="paint157_linear_500_1577" x1="30.7449" y1="341.296" x2="46.9986" y2="345.181" gradientUnits="userSpaceOnUse">
<stop stop-color="#4790CD"/>
<stop offset="1" stop-color="#EA6FAA"/>
</linearGradient>
<linearGradient id="paint158_linear_500_1577" x1="324.941" y1="362.825" x2="324.941" y2="386.316" gradientUnits="userSpaceOnUse">
<stop stop-color="#F6F6F6"/>
<stop offset="1" stop-color="#CCD5ED"/>
</linearGradient>
<linearGradient id="paint159_linear_500_1577" x1="363.994" y1="329.242" x2="373.834" y2="320.415" gradientUnits="userSpaceOnUse">
<stop stop-color="#FAD6C7"/>
<stop offset="1" stop-color="#E4857F"/>
</linearGradient>
<linearGradient id="paint160_linear_500_1577" x1="365.744" y1="388.728" x2="374.865" y2="386.982" gradientUnits="userSpaceOnUse">
<stop stop-color="#FAD6C7"/>
<stop offset="1" stop-color="#E4857F"/>
</linearGradient>
<linearGradient id="paint161_linear_500_1577" x1="370.941" y1="365.363" x2="386.282" y2="352.06" gradientUnits="userSpaceOnUse">
<stop stop-color="#FAD6C7"/>
<stop offset="1" stop-color="#E4857F"/>
</linearGradient>
<linearGradient id="paint162_linear_500_1577" x1="374.436" y1="356.374" x2="380.242" y2="309.058" gradientUnits="userSpaceOnUse">
<stop stop-color="#F6F6F6"/>
<stop offset="1" stop-color="#CCD5ED"/>
</linearGradient>
<linearGradient id="paint163_linear_500_1577" x1="374.714" y1="307.279" x2="372.42" y2="291.686" gradientUnits="userSpaceOnUse">
<stop stop-color="#FAD6C7"/>
<stop offset="1" stop-color="#E4857F"/>
</linearGradient>
<linearGradient id="paint164_linear_500_1577" x1="388.33" y1="324.107" x2="387" y2="312.299" gradientUnits="userSpaceOnUse">
<stop stop-color="#FAD6C7"/>
<stop offset="1" stop-color="#E4857F"/>
</linearGradient>
<linearGradient id="paint165_linear_500_1577" x1="370.077" y1="317.801" x2="370.224" y2="311.762" gradientUnits="userSpaceOnUse">
<stop stop-color="#F6F6F6"/>
<stop offset="1" stop-color="#CCD5ED"/>
</linearGradient>
<linearGradient id="paint166_linear_500_1577" x1="229.769" y1="388.967" x2="229.769" y2="410.402" gradientUnits="userSpaceOnUse">
<stop stop-color="#F6F6F6"/>
<stop offset="1" stop-color="#CCD5ED"/>
</linearGradient>
<linearGradient id="paint167_linear_500_1577" x1="271.049" y1="420.364" x2="280.506" y2="415.532" gradientUnits="userSpaceOnUse">
<stop stop-color="#FAD6C7"/>
<stop offset="1" stop-color="#E4857F"/>
</linearGradient>
<linearGradient id="paint168_linear_500_1577" x1="278.574" y1="421.707" x2="288.031" y2="416.876" gradientUnits="userSpaceOnUse">
<stop stop-color="#FAD6C7"/>
<stop offset="1" stop-color="#E4857F"/>
</linearGradient>
<linearGradient id="paint169_linear_500_1577" x1="209.088" y1="331.606" x2="208.162" y2="404.249" gradientUnits="userSpaceOnUse">
<stop stop-color="#FAD6C7"/>
<stop offset="1" stop-color="#E4857F"/>
</linearGradient>
<linearGradient id="paint170_linear_500_1577" x1="248.301" y1="336.101" x2="246.765" y2="380.524" gradientUnits="userSpaceOnUse">
<stop stop-color="#4790CD"/>
<stop offset="1" stop-color="#DA62A5"/>
</linearGradient>
<linearGradient id="paint171_linear_500_1577" x1="280.482" y1="367.378" x2="283.713" y2="333.948" gradientUnits="userSpaceOnUse">
<stop stop-color="#F6F6F6"/>
<stop offset="1" stop-color="#CCD5ED"/>
</linearGradient>
<linearGradient id="paint172_linear_500_1577" x1="271.771" y1="335.125" x2="271.718" y2="332.885" gradientUnits="userSpaceOnUse">
<stop stop-color="#FAD6C7"/>
<stop offset="1" stop-color="#E4857F"/>
</linearGradient>
<linearGradient id="paint173_linear_500_1577" x1="271.63" y1="332.091" x2="271.915" y2="328.763" gradientUnits="userSpaceOnUse">
<stop stop-color="#FAD6C7"/>
<stop offset="1" stop-color="#E4857F"/>
</linearGradient>
<linearGradient id="paint174_linear_500_1577" x1="244.723" y1="337.882" x2="242.266" y2="417.277" gradientUnits="userSpaceOnUse">
<stop stop-color="#FAD6C7"/>
<stop offset="1" stop-color="#E4857F"/>
</linearGradient>
<linearGradient id="paint175_linear_500_1577" x1="263.569" y1="337.461" x2="261.945" y2="381.005" gradientUnits="userSpaceOnUse">
<stop stop-color="#4790CD"/>
<stop offset="1" stop-color="#DA62A5"/>
</linearGradient>
<linearGradient id="paint176_linear_500_1577" x1="243.517" y1="308.541" x2="210.849" y2="314.939" gradientUnits="userSpaceOnUse">
<stop stop-color="#4790CD"/>
<stop offset="1" stop-color="#DA62A5"/>
</linearGradient>
<linearGradient id="paint177_linear_500_1577" x1="216.256" y1="317.92" x2="212.916" y2="317.79" gradientUnits="userSpaceOnUse">
<stop stop-color="#4790CD"/>
<stop offset="1" stop-color="#DA62A5"/>
</linearGradient>
<linearGradient id="paint178_linear_500_1577" x1="215.577" y1="321.32" x2="212.135" y2="321.029" gradientUnits="userSpaceOnUse">
<stop stop-color="#4790CD"/>
<stop offset="1" stop-color="#DA62A5"/>
</linearGradient>
<linearGradient id="paint179_linear_500_1577" x1="217.141" y1="317.779" x2="213.775" y2="317.61" gradientUnits="userSpaceOnUse">
<stop stop-color="#4790CD"/>
<stop offset="1" stop-color="#DA62A5"/>
</linearGradient>
<linearGradient id="paint180_linear_500_1577" x1="218.979" y1="313.572" x2="215.66" y2="313.471" gradientUnits="userSpaceOnUse">
<stop stop-color="#4790CD"/>
<stop offset="1" stop-color="#DA62A5"/>
</linearGradient>
<linearGradient id="paint181_linear_500_1577" x1="233.86" y1="308.142" x2="233.629" y2="312.427" gradientUnits="userSpaceOnUse">
<stop stop-color="#4790CD"/>
<stop offset="1" stop-color="#DA62A5"/>
</linearGradient>
</defs>
</svg>
