<svg id="Screenshot" xmlns="http://www.w3.org/2000/svg" viewBox="0 0 400 140">
  <defs>
    <style>
      .cls-1 {
        fill: #556a8a;
      }

      .cls-2 {
        fill: #adbdca;
      }

      .cls-3 {
        fill: #fff;
      }

      .cls-4 {
        fill: #e5e5e5;
      }

      .cls-5, .cls-7 {
        fill: none;
      }

      .cls-5 {
        stroke: #556a8a;
        stroke-miterlimit: 10;
        stroke-width: 2px;
      }

      .cls-6 {
        fill: #2bc7f4;
      }
    </style>
  </defs>
  <title>biztallk-host-integration-install-configure</title>
  <g>
    <g>
      <polygon class="cls-1" points="266.84 130.75 149.84 130.75 157.15 122.75 259.99 122.75 266.84 130.75"/>
      <polygon class="cls-2" points="255.84 129 160.84 129 164.18 125 252.6 125 255.84 129"/>
      <polygon class="cls-1" points="231.09 114 179.09 114 173.09 120 237.09 120 231.09 114"/>
      <polygon class="cls-1" points="210.34 118.75 203.34 118.75 204.74 104.75 208.94 104.75 210.34 118.75"/>
      <rect class="cls-3" x="131.09" y="21.5" width="151" height="82" rx="4" ry="4"/>
      <path class="cls-4" d="M282.09,27V39h-151V27a4,4,0,0,1,4-4h143A4,4,0,0,1,282.09,27Z"/>
      <rect class="cls-5" x="131.09" y="23" width="151" height="82" rx="4" ry="4" transform="translate(413.18 128) rotate(180)"/>
    </g>
    <g>
      <rect class="cls-1" x="186.09" y="93" width="40" height="2"/>
      <polygon class="cls-1" points="224.69 66.88 207.08 84.67 207.08 40.5 205.1 40.5 205.1 84.67 187.49 66.88 186.09 68.29 206.09 88.5 226.09 68.29 224.69 66.88"/>
    </g>
    <path class="cls-6" d="M150.38,70.83a2.13,2.13,0,0,0,2.31.85l4.25-1.36a2.28,2.28,0,0,0,1.12-2.72l-1.28-5.3A3.16,3.16,0,0,1,158,58.55c.51-.82,1.43-1.39,1.94-2.21a3.83,3.83,0,0,1,3.74-.54l5.7,1.82a2.58,2.58,0,0,0,2.24-.88l2.13-4.37c.26-.41,0-1.7-1.29-2.5l-4.93-3a2.79,2.79,0,0,1-1.46-3.16l-.39-.41a3.71,3.71,0,0,0,.46-2.57c-.32-1.33,0-2.82,2.28-3.71l4.76-2.18a2.7,2.7,0,0,0,1.11-2.72l-1.7-4.51a1.7,1.7,0,0,0-2.24-.89l-.08,0-5.3,1.34a3.26,3.26,0,0,1-3.79-1.21c-.82-.51-1.39-1.43-2.21-1.94a5.47,5.47,0,0,1-1-4l2-5.1a2.47,2.47,0,0,0-1-2.92l-4.22-1.46a2.07,2.07,0,0,0-2.67.63l-2.64,5.19a3.49,3.49,0,0,1-3.4,1.87,10.58,10.58,0,0,0-2.82,0l-.41-.26a3.6,3.6,0,0,1-3.33-2l-2.38-5.41a2.13,2.13,0,0,0-2.31-.85l-4.51,1.7a1.7,1.7,0,0,0-.89,2.24l0,.08,1,5.73c.48,2,0,2.82-1,3.4-.51.82-1.43,1.39-1.94,2.21a3.59,3.59,0,0,1-4,.94l-5.44-2.23A2.65,2.65,0,0,0,115.64,26l-2.21,4.37a3,3,0,0,0,1.29,2.5l4.93,3c1.7,1,2.21,1.94,1.45,3.18a23.31,23.31,0,0,0,.37,3.08c-.09,1-.19,2.14-2.43,3l-5,2.58a2.13,2.13,0,0,0-.87,2.31l1.7,4.51a2.18,2.18,0,0,0,2.06,1.28l5.58-1.7c2-.48,2.82,0,3.4,1a30.6,30.6,0,0,1,2.36,2.6,3.06,3.06,0,0,1,1.19,3.59l-2.23,5.44a2.65,2.65,0,0,0,1.29,2.5l4,1.87a2.07,2.07,0,0,0,2.67-.63l2.7-5.19a3.4,3.4,0,0,1,3.4-1.87l3.23.29c1.33-.31,2.16.19,3.28,2l2.58,5m4.4-33.65a12,12,0,0,1-7,15,11.17,11.17,0,0,1-15.11-7,11.48,11.48,0,0,1,6.8-14.59,11.63,11.63,0,0,1,15.19,6.29l.11.27"/>
    <rect class="cls-7" x="102.09" y="6.5" width="196" height="133"/>
  </g>
</svg>
